<svg xmlns="http://www.w3.org/2000/svg" viewBox="0 0 141.35 51.9"><defs><style>.cls-1{fill:#fff;}.cls-2{fill:#e11b22;}.cls-3{fill:none;stroke:#fff;stroke-miterlimit:10;stroke-width:0.64px;}</style></defs><g id="Capa_2" data-name="Capa 2"><g id="Capa_1-2" data-name="Capa 1"><g id="Layer_1" data-name="Layer 1"><path class="cls-1" d="M2.89,9.93a3.33,3.33,0,0,0-.43-2,2.18,2.18,0,0,0-1.7-.52H0V6.16H9.44V7.38H6.55V27.82A4.38,4.38,0,0,0,7.7,31.1,4.59,4.59,0,0,0,11,32.23a4.05,4.05,0,0,0,3.31-1.33,6.32,6.32,0,0,0,1.1-4.07V9.93a3.39,3.39,0,0,0-.42-2,2.12,2.12,0,0,0-1.67-.51h-.8V6.16h7V7.38H16.65v20a7,7,0,0,1-1.77,5.15,6.75,6.75,0,0,1-5,1.8,6.77,6.77,0,0,1-5.19-1.88A7.8,7.8,0,0,1,2.89,27v-17h0Z"/><path class="cls-1" d="M46.26,9.93a3.33,3.33,0,0,0-.43-2,2.18,2.18,0,0,0-1.7-.52h-.76V6.16H57.64V4.35H59V14H57.64V12.25A4.72,4.72,0,0,0,56.35,8.5,6.62,6.62,0,0,0,52,7.38H49.92v6.68h3.37V10.27h1.29V20H53.29v-2A2.92,2.92,0,0,0,52.63,16a2.39,2.39,0,0,0-1.84-.73h-.86V30a3.33,3.33,0,0,0,.43,2,2.12,2.12,0,0,0,1.68.53h1.31v1.2h-10v-1.2h2.89V9.93h0Z"/><path class="cls-2" d="M43.52,15.57c.08-.34.41-.55.51-.84a1,1,0,0,0-.24-1,.07.07,0,0,0,0,0,0,0,0,0,0,0,0,1,1,0,0,0-1.44-.84c-.79-.79-2.46-.85-2.41-2.33.22-.12.66,0,.83,0-.15-.78-.6-1.58-1.64-1.46.43-1.64-2.13-.81-2.48-1.81a.94.94,0,0,0-.42.29v0c0-1.14,1.09-1.32,1.61-.51-.1-.68-1.62-.88-1.92-.29-.37-.84.46-.49-.11-1.23a5.47,5.47,0,0,0-3.07-1.7,2.53,2.53,0,0,1,1.77,2.15,1.11,1.11,0,0,0-.81-.31.42.42,0,0,1,.06.63c-.06.09-1-.06-.9,0C32.21,6,31.78,5,31.2,4.72c-1.1-.65-3.22-1.13-4.35-.4A5.26,5.26,0,0,1,30,6.58c-.49.06-1.61.15-1.69.81.34-.08.86-.12,1.08.18-1.28.79-2.52,1.77-2.74,3.49a6.76,6.76,0,0,1,1.51-1.67A2.2,2.2,0,0,1,29.85,9a3,3,0,0,0-2.6,2.13,5.09,5.09,0,0,1-.54,1.36c-.26.4-.56-.11-.54,0,.11.74.49.77.43,1a5.87,5.87,0,0,0-.07.91c0,1.55,2.28,4.26.43,5,.69.46,1.48-.33,1.87-.81.62.67.91,1.3,1.68,1.62h0a3.64,3.64,0,0,0,3,2.36,2.28,2.28,0,0,1-.94-1.28l0,0A15.21,15.21,0,0,1,35,22.68a4,4,0,0,1,1.17,3.09,2.76,2.76,0,0,1-1.52,2.08,2.21,2.21,0,0,0,1.22-.14,4.73,4.73,0,0,1-.63,1,2.48,2.48,0,0,1-2.16,0,2.9,2.9,0,0,0,1.14.61,2.8,2.8,0,0,1-1.89.55,2.3,2.3,0,0,1-2.14-2,2.66,2.66,0,0,1,.23-1.43,2.27,2.27,0,0,1,1.45-1.37,3.68,3.68,0,0,0-3.11,1.52,5.84,5.84,0,0,0-1.68-1.07c0-.29.54-.61,1.83-.6a9.64,9.64,0,0,0-2-.41,3,3,0,0,0-1.65.22c.36-.7,2-1.58,2.49-1.37a3.63,3.63,0,0,0-1.14-.3,5.51,5.51,0,0,0-1.11,0,7.58,7.58,0,0,0-3.44,1.67c-3.45,2.63-5.36,7.57-5.13,11.8a5.09,5.09,0,0,0,.1.68c0,.1,0,.16,0,.13h0v-.06a16.55,16.55,0,0,1,1.61-5.66c-.79,3.05.41,7.59.41,7.59-.51-3.11,0-8.84,3.09-10.6l.39-.18a2.75,2.75,0,0,1,1-.2,2.85,2.85,0,0,1,2.85,2.84h0a2.83,2.83,0,0,1-2.25,2.78,2.24,2.24,0,0,1-.52.06,6.37,6.37,0,0,0,1.39.25c1.52.14,2.76.12,3.71-1.58a39,39,0,0,0-2.45,5.11c3.57-4.27,5-2.55,7-3.26h0A4.2,4.2,0,0,1,32,35.6c.95,0,2.44-.62,4.63-2a3.9,3.9,0,0,0,.88,2.9s-.26-2.46,2.44-5.24c.21.45.14.74-.31,2.18,1.07-1.85,2-2.69,2.3-3.84a25.62,25.62,0,0,0,.59-3.23,7.43,7.43,0,0,0-2.57-6.54,22.49,22.49,0,0,0-2.56-2.08.83.83,0,0,1-.08-.12c.36.11.68.07,1.55-.73a4.84,4.84,0,0,1-2.31-.16,4.81,4.81,0,0,1-1.6-.67c-.65-.4-.83-1.27-1.14-2A3,3,0,0,1,33.42,13v-.13s.08.43,1,.49c.55,0,.94-.53,1.46-.58a2.8,2.8,0,0,1,1.87.95c.71.65.94,1.78,1.85,2.18a2.5,2.5,0,0,0,.71.2,1.3,1.3,0,0,1,0,.34c-.1.68-.6.67-1,.38.17.32.88.74,1.21-.32a2.59,2.59,0,0,0,.09-.4H41c.13,0,1.3-.19,1-.46-.09-.09-.28-.06-.38,0a2.32,2.32,0,0,1-1-.06,2,2,0,0,1,.32-.81,2.32,2.32,0,0,0,.43.29,2.36,2.36,0,0,0,.65.25c.3.07.64.3.88,0s.24-.82.55-1.13a0,0,0,0,1,0,0c.61.47-.13,1-.18,1.46-.08.81.53.73.73.57-.36.08-.7-.06-.58-.55h0ZM37.67,9.89a5,5,0,0,0-1.11-.4c.31-.88.9-.68,1.42-.28a4.32,4.32,0,0,1,.39.34,6.61,6.61,0,0,1,.49.53A2.09,2.09,0,0,1,38.1,10a3.81,3.81,0,0,1-.44-.15h0Zm2.41,5.46a.7.7,0,0,1-.35-.2,2.17,2.17,0,0,1-.53-.56c-.77-1.14-.85-1.07-.85-1.64,0-.16.36,0,.48.09a7.13,7.13,0,0,1,.75.58l.71.56a1.56,1.56,0,0,0-.24.87,1,1,0,0,0,0,.29h0Z"/><path class="cls-1" d="M87.2,9.86a14.42,14.42,0,0,1,.54,19.58,14.19,14.19,0,0,1-11.33,5c-8.5,0-15.14-6.39-15.14-14.56S67.74,5.42,76.16,5.42A14.82,14.82,0,0,1,87.2,9.86Zm-19.71.21a10.74,10.74,0,0,0-2.7,7.47C64.79,25.88,70.93,33,78.07,33c5.44,0,9.62-4.69,9.62-10.83,0-8-6.39-15.23-13.4-15.23a9.75,9.75,0,0,0-6.8,3.11h0Z"/><path class="cls-1" d="M116.06,36.53l-.49-.63s-8.33,5.51-30.77-3c0,0-8.06-3.26-10.8-2.17,0,0-1.22.34-1,2.11l.68.59s.34-1.76,2.79-1.62,4.89,1.09,8.17,2.34,12,4.44,15.91,5.14A19.64,19.64,0,0,0,112.93,38c1.27-.56,1.89-.85,3.14-1.44h0Z"/><path class="cls-1" d="M.3,41.76H1.62v9.91H.3Z"/><path class="cls-1" d="M3.82,41.76h1.4l5.22,8h0v-8h1.25v9.91H10.28l-5.18-8h0v8H3.82Z"/><path class="cls-1" d="M13.84,41.76h1.4l5.22,8h0v-8h1.25v9.91H20.3l-5.18-8h0v8H13.84Z"/><path class="cls-1" d="M28.07,41.52c3.15,0,4.75,2.5,4.75,5.19s-1.6,5.19-4.75,5.19-4.75-2.5-4.75-5.19S24.92,41.52,28.07,41.52Zm0,9.27c2.42,0,3.43-2.08,3.43-4.08s-1-4.08-3.43-4.08-3.43,2.08-3.43,4.08S25.65,50.79,28.07,50.79Z"/><path class="cls-1" d="M38.33,51.67h-1.5l-3.5-9.91h1.43l2.83,8.59h0l2.86-8.59h1.37l-3.53,9.91Z"/><path class="cls-1" d="M45,41.76h1.46l3.87,9.91H48.83l-1.08-3H43.56l-1.11,3H41.09Zm-1,5.81h3.36L45.69,43h0Z"/><path class="cls-1" d="M58.24,44.74a2.61,2.61,0,0,0-2.78-2.11c-2.36,0-3.36,1.94-3.36,4,0,2.26,1,4.15,3.37,4.15a2.8,2.8,0,0,0,2.86-2.86h1.32a4,4,0,0,1-4.29,4c-3.08,0-4.58-2.28-4.58-5.17s1.64-5.22,4.69-5.22a3.79,3.79,0,0,1,4.08,3.22H58.24Z"/><path class="cls-1" d="M61.34,41.76h1.32v9.91H61.34Z"/><path class="cls-1" d="M69.07,41.52c3.15,0,4.75,2.5,4.75,5.19s-1.6,5.19-4.75,5.19-4.75-2.5-4.75-5.19S65.92,41.52,69.07,41.52Zm0,9.27c2.42,0,3.43-2.08,3.43-4.08s-1-4.08-3.43-4.08-3.43,2.08-3.43,4.08S66.65,50.79,69.07,50.79Zm.35-11.73h1.51l-1.82,2h-.89l1.19-2Z"/><path class="cls-1" d="M75.42,41.76h1.4l5.22,8h0v-8h1.25v9.91H81.88l-5.18-8h0v8H75.42Z"/><path class="cls-2" d="M111.63,33.89a.33.33,0,0,0,.26-.1l.24-.24a2.55,2.55,0,0,1,.28-.25l.53-.49a5.47,5.47,0,0,1,.59-.49l.29-.21a1.28,1.28,0,0,0,.29-.24,2.2,2.2,0,0,1,.28-.18,1.14,1.14,0,0,0,.25-.18l.11-.12a.58.58,0,0,1,.14-.13,3.59,3.59,0,0,0,.35-.21,3.72,3.72,0,0,0,.35-.24,3.48,3.48,0,0,0,.38-.2,1,1,0,0,0,.32-.31,1.09,1.09,0,0,0,.57-.22,3.92,3.92,0,0,1,.54-.33.41.41,0,0,1,.17-.07.19.19,0,0,0,.14-.07,4.41,4.41,0,0,1,.54-.24,3.75,3.75,0,0,0,.6-.24.58.58,0,0,0,.26,0,1.28,1.28,0,0,0,.26-.1c.54-.11,1.12-.21,1.73-.28s1.16-.13,1.65-.17t0,.06s0,.05.06,0,0,0,0,0,0-.05,0-.07.09,0,.11,0a.66.66,0,0,1,.22.22.47.47,0,0,0,.22.2s0,0,0,0-.06,0-.06,0a.13.13,0,0,0,.13,0,.35.35,0,0,0,.12-.07.41.41,0,0,1,.11-.07s.07,0,.11,0a.54.54,0,0,0,.17-.43.86.86,0,0,1,.14-.49.66.66,0,0,1,0-.36.47.47,0,0,0,0-.31s0,0,0,0h.06q.14-.5.24-1a4.67,4.67,0,0,1,.29-1c0-.07,0-.12,0-.14s.06,0,.06,0a.06.06,0,0,1,.06-.06.71.71,0,0,1,.07-.28,2.37,2.37,0,0,1,.15-.28v-.14a9.53,9.53,0,0,0,.52-1.28,6.46,6.46,0,0,1,.54-1.26,7.41,7.41,0,0,1,.85-1.63c.34-.49.67-1,1-1.55a.47.47,0,0,0,.17-.14.4.4,0,0,1,.17-.14s0-.06,0-.06a.28.28,0,0,1,0-.06,3.73,3.73,0,0,1,.36-.32,1.56,1.56,0,0,0,.33-.35,2.14,2.14,0,0,0,.32-.2,2.26,2.26,0,0,0,.29-.25.6.6,0,0,0,.29.06c.12,0,.18.07.18.2a.18.18,0,0,0,.14-.06.38.38,0,0,1,.11-.08.17.17,0,0,1,.11,0s.07,0,.11,0,.12.15.12.33-.06.28-.21.28c0,.07,0,.12,0,.14a.22.22,0,0,0,0,.14c.07,0,.12,0,.13,0s0,0,.12,0,.08-.14.14-.08,0,.1,0,.13l-.08.1c0,.13.07.27.11.42s.07.29.11.42,0,.09,0,.22h-.06a.34.34,0,0,1,0,.26.67.67,0,0,0,0,.24c0,.28-.07.57-.1.87a3.68,3.68,0,0,1-.18.84,5,5,0,0,1-.4,1.06,6.53,6.53,0,0,0-.43,1.06,2.18,2.18,0,0,0-.25.59,6.21,6.21,0,0,1-.2.61c-.11.26-.23.51-.35.74a2.43,2.43,0,0,0-.24.79.21.21,0,0,0-.12.18.77.77,0,0,1-.07.27,5.19,5.19,0,0,0-.31.7.32.32,0,0,0,0,.17,1,1,0,0,1,0,.17,1.54,1.54,0,0,1-.17.34.94.94,0,0,0-.14.33,1,1,0,0,0-.17.36c0,.15-.08.3-.11.45a1,1,0,0,0-.06.14l-.06.14a.51.51,0,0,0,0,.17.34.34,0,0,1,0,.17c0,.15,0,.29-.08.42a2.7,2.7,0,0,0-.08.39V31a.19.19,0,0,1-.08.14,1.61,1.61,0,0,1-.2.74,4.9,4.9,0,0,0-.31.65s-.06,0-.06,0,0,0-.06,0a.43.43,0,0,0-.07.2.85.85,0,0,1,0,.22c-.07.21-.15.41-.22.63a3.66,3.66,0,0,0-.17.65,5.17,5.17,0,0,0,0,.54,1.57,1.57,0,0,1-.08.49s-.06,0-.06,0l-.06,0a.09.09,0,0,0,0,.06s0,0-.06,0c0,.26-.08.51-.14.75s-.1.49-.14.75c0,0,0,.06,0,.06s0,0,0,.06a7.73,7.73,0,0,1-.15.78,4.84,4.84,0,0,0-.15.67.14.14,0,0,1-.06.11,1.4,1.4,0,0,0-.11.4c0,.14-.05.28-.08.43a.36.36,0,0,1-.06.22,1.8,1.8,0,0,0-.11.2.34.34,0,0,0,0,.2c0,.07,0,.11-.11.11h-.06a.82.82,0,0,1,0-.21.16.16,0,0,0-.08-.15.18.18,0,0,0,0,.21.49.49,0,0,1,0,.27.87.87,0,0,0,0,.21.68.68,0,0,0,0,.27.51.51,0,0,0-.15.33,1,1,0,0,0,0,.36.17.17,0,0,0-.12.18c0,.1,0,.21,0,.32a1.55,1.55,0,0,1,0,.31c0,.09-.08.14-.2.14a.25.25,0,0,0,0-.31c-.06,0-.07.1,0,.2a.53.53,0,0,1,0,.28.09.09,0,0,1-.1,0,.17.17,0,0,0-.1,0,.66.66,0,0,1,0-.28.81.81,0,0,0,0-.31.11.11,0,0,0-.06.11c0,.06,0,.08-.11.08a2,2,0,0,1,.06-.68,2.17,2.17,0,0,0,.06-.66.29.29,0,0,0-.17.08.56.56,0,0,1-.11.11,4.43,4.43,0,0,0,0,1,3.61,3.61,0,0,1,0,1,.18.18,0,0,1-.25,0,.82.82,0,0,0-.22-.17.5.5,0,0,0-.13.24,1.55,1.55,0,0,0-.06.31.82.82,0,0,1-.06.28.22.22,0,0,1-.15.15.28.28,0,0,1,.06-.08.06.06,0,0,0,0-.08s0,0-.06,0,0,0,0,0c0-.35,0-.67,0-1a5.26,5.26,0,0,0-.1-.92,1.07,1.07,0,0,1,0-.42.88.88,0,0,0-.07-.42,11.27,11.27,0,0,1,.08-1.35,8.86,8.86,0,0,0,.06-1.27c-.06.06-.1,0-.14,0,0,.32-.06.6-.07.87a2.36,2.36,0,0,1-.13.75c-.07,0-.1,0-.08-.08s0-.09-.11-.06a1.85,1.85,0,0,1,0-.53c0-.17.07-.33.11-.47a1.48,1.48,0,0,0,0-.21.58.58,0,0,1,0-.15,4.75,4.75,0,0,1,.14-.46.53.53,0,0,0,0-.46,1.45,1.45,0,0,0,.1-.68,1.74,1.74,0,0,1,.07-.71.27.27,0,0,0-.14.06.25.25,0,0,0-.11.14s0,0-.08,0c-.21.15-.4.29-.57.43s-.37.27-.57.4v.11a2,2,0,0,0-.39.31.76.76,0,0,1-.39.22s0,0,0,0,0,0,0,.07a4.58,4.58,0,0,0-.66.27l-.66.32c-.5.26-1,.48-1.45.67a1.46,1.46,0,0,1-.31.14,2.33,2.33,0,0,0-.33.14v0l0,0-.14-.06s-.06,0-.06,0,0,0,0,0l-.7.11-.73.11L114,39.6a2,2,0,0,1-.73-.17,2.74,2.74,0,0,1-.89-.68l-.75-.88a.44.44,0,0,1-.22.05,3.87,3.87,0,0,1-.2-.72,1.77,1.77,0,0,1,.06-.78.06.06,0,0,0-.07,0h-.07a.23.23,0,0,0,0-.25A.71.71,0,0,0,111,36a9.25,9.25,0,0,0,.53-2.06Zm5.49,1.84.11-.11s.06,0,.08.05l.5-.21a3.17,3.17,0,0,1,.5-.15.46.46,0,0,1,.32-.18,1.36,1.36,0,0,0,.35-.07.37.37,0,0,0,.17-.05.65.65,0,0,1,.17-.08s.07,0,.1,0h.1l0,0s0,0,.06,0a.9.9,0,0,1,.24-.07.4.4,0,0,0,.21-.1s0,0,0,0,0,0,0,0a1.59,1.59,0,0,0,.57-.14,4.09,4.09,0,0,0,.46-.25,1.68,1.68,0,0,1,.24-.08,1.31,1.31,0,0,1,.27-.05.33.33,0,0,0,.12-.06l.1-.08a1.58,1.58,0,0,1,.38-.18,1.93,1.93,0,0,0,.35-.15,1.73,1.73,0,0,0,0-.36.27.27,0,0,1,.14-.28,2.55,2.55,0,0,1,.17-.89,1.14,1.14,0,0,0,0-.81c-.06,0-.09,0-.1,0s0,0-.1,0,0,0,0,0,0,0,0,0a1.42,1.42,0,0,1-.42.1.44.44,0,0,0-.33.21h-.08a.56.56,0,0,1-.15.1.44.44,0,0,0-.15.1,16,16,0,0,0-1.48.79c-.46.29-1,.56-1.45.82,0,0-.06.09-.17.17a.52.52,0,0,1-.18.18.7.7,0,0,0-.21.21s-.07,0-.08,0a.11.11,0,0,1-.08,0,.46.46,0,0,0-.14.2h-.14l-.6.59-.6.56a.58.58,0,0,1-.27.35.89.89,0,0,0-.32.32v0a3.19,3.19,0,0,0,.6-.12,3.05,3.05,0,0,1,.66-.15Zm5.81-2.9a.68.68,0,0,0,0,.24,1.79,1.79,0,0,1,0,.21.36.36,0,0,0,.13-.21.19.19,0,0,0-.1-.24Zm.08-.09s0-.06,0-.08,0,0-.06,0S123,32.74,123,32.74Zm.08-.47a.17.17,0,0,1,0,.1.14.14,0,0,0-.06.12c.06,0,.09,0,.11-.08a.12.12,0,0,0,0-.14Zm.92,8.82s0-.07,0-.08,0,0,0,0S124,41,124,41,124,41.09,124,41.09Z"/><path class="cls-2" d="M140.11,33.5l0,0s0,0,0,0,.18.12.32,0a.74.74,0,0,1,.38-.14s0,.06,0,.07,0,0,0,0,.07.06.1,0,.06,0,.1,0a.08.08,0,0,1,0,.11c-.05,0-.07,0-.07,0s-.06,0-.06.07,0,0-.06,0a.41.41,0,0,1,0,.22.56.56,0,0,0,.22,0,1.09,1.09,0,0,0,0,.28.76.76,0,0,0-.21.18l-.21.21s-.06,0-.06,0,0,0-.06,0v.11c-.09,0-.14,0-.15,0a.4.4,0,0,1-.07.15c.06,0,.09,0,.11,0a.57.57,0,0,1,.11-.1.07.07,0,0,0,.06.07s.06,0,.06.07-.09,0-.11,0a.16.16,0,0,1-.11,0s0,0,0,0a.24.24,0,0,0,0,.07c-.06,0-.08,0-.08,0a.21.21,0,0,1,0,.13.54.54,0,0,0-.35.11.39.39,0,0,1-.32.08.2.2,0,0,1-.18.11.2.2,0,0,0-.18.14s-.06,0-.07,0,0,0,0,0a.36.36,0,0,1-.22.17.38.38,0,0,0-.22.11h0a.47.47,0,0,1-.17.25.13.13,0,0,1-.2,0,.45.45,0,0,1-.15.18.53.53,0,0,0-.15.15s.09,0,.15-.06.12,0,.15,0a1.06,1.06,0,0,1-.33.22l-.39.14c0,.07,0,.1,0,.07s0,0,0,0a.23.23,0,0,1-.11.07s-.06.06-.06.15c-.19,0-.27,0-.25.22,0,0-.07,0-.08-.06a4.34,4.34,0,0,1-.85.53,8.36,8.36,0,0,0-.88.5.71.71,0,0,0-.56.31,4.31,4.31,0,0,0-.79.35l-.74.43s0,.05,0,0a.09.09,0,0,1,.06,0,2.31,2.31,0,0,1-.68.39,2.19,2.19,0,0,0-.68.39,1.84,1.84,0,0,0-.67.17,3.1,3.1,0,0,1-.61.2.34.34,0,0,1-.15,0h-.21a2.35,2.35,0,0,1-.63,0c-.27,0-.5,0-.68-.08l-.12-.07-.15-.1a.08.08,0,0,0-.07,0s0,0-.07,0a.29.29,0,0,1-.11-.11.49.49,0,0,0-.17-.14l-.28-.18a1.28,1.28,0,0,0-.28-.15s0-.06,0-.07,0,0,0-.07-.08,0-.08,0,0-.07,0-.08,0,0,0-.06,0,0,0,0,0,0,0,0a4,4,0,0,1-.39-.66,2.39,2.39,0,0,0-.39-.6,1.09,1.09,0,0,0-.28-.64s0,0,0,0,0,0,0,0a1.85,1.85,0,0,1-.26-1.1,3.51,3.51,0,0,1,.24-1.24,1,1,0,0,0,.14-.25.36.36,0,0,1,.2-.2,4.67,4.67,0,0,1,.78-1.33l.92-1.05.18-.2a2.32,2.32,0,0,0,.21-.22,2,2,0,0,1,.25-.25l.29-.28.32-.28a2.5,2.5,0,0,0,.46-.46,1.32,1.32,0,0,1,.46-.38s0,0,0,0a.15.15,0,0,0,0-.06A1.13,1.13,0,0,0,131,30a1.5,1.5,0,0,0,.29-.35.29.29,0,0,0,.32-.14.58.58,0,0,1,.24-.25.9.9,0,0,1,.21-.08.58.58,0,0,0,.18-.11,1.4,1.4,0,0,1,.2-.17c.28-.19.56-.36.84-.52s.58-.31.89-.46a6.74,6.74,0,0,0,.64-.34,3.21,3.21,0,0,1,.73-.31c.06,0,.08,0,.08-.05a.13.13,0,0,0,.12,0l.13-.07a3.53,3.53,0,0,1,.46-.15l.46-.13h.52a1.09,1.09,0,0,1,.52.15c0,.06,0,.08,0,.08h-.06a2.71,2.71,0,0,0,.25.17.5.5,0,0,1,.2.28.62.62,0,0,0,.17.11c.06.17.13.26.22.28s-.05,0,0,0,0,0,0,0a.39.39,0,0,1,.14.18c0,.06.05.14.08.24a.6.6,0,0,0,.14.22.69.69,0,0,1,.14.22.3.3,0,0,1,.06.18.19.19,0,0,0,.06.15.36.36,0,0,1,0,.2.23.23,0,0,1,.13.15,1.41,1.41,0,0,1,0,.2,1.12,1.12,0,0,0,0,.21.43.43,0,0,0,0,.22.13.13,0,0,1,0,.1.1.1,0,0,0,0,.12,2.28,2.28,0,0,0-.39.52,3,3,0,0,1-.36.52.14.14,0,0,0-.07.06s0,0-.07.05a2.76,2.76,0,0,1-.21.25,1.74,1.74,0,0,1-.24.22.42.42,0,0,1-.12.08.26.26,0,0,0-.13.14.87.87,0,0,1-.14.12l-.14.13-.32.12a.52.52,0,0,0-.27.21c-.3.17-.58.35-.86.53a8.51,8.51,0,0,1-.89.5,1,1,0,0,1-.25.07.27.27,0,0,0-.2.13.35.35,0,0,0-.25.1.51.51,0,0,1-.28.12.11.11,0,0,0-.11.08l-.08,0a2.19,2.19,0,0,1-.57.29l-.6.18c-.08,0-.11,0-.11,0a.71.71,0,0,0-.21.08.28.28,0,0,1-.21,0,.26.26,0,0,1-.11.08,1.42,1.42,0,0,0-.42.06.75.75,0,0,1-.42,0s-.06,0-.06,0,0,0-.06.06a.71.71,0,0,0-.28-.06.21.21,0,0,1-.2-.14h-.11a.18.18,0,0,1-.14,0l-.45.47a2.52,2.52,0,0,0-.39.59s0,0,0,0h0a.24.24,0,0,1-.1.15s-.07.11-.07.24a.37.37,0,0,0-.2.31A.61.61,0,0,1,129,37a3.2,3.2,0,0,0,.66-.08,4.13,4.13,0,0,1,.66-.11s.06,0,.06-.07,0,0,.06-.07a.5.5,0,0,0,.31,0,.49.49,0,0,1,.28-.07s.05,0,.08-.11a.53.53,0,0,0,.33-.06,1.69,1.69,0,0,0,.33-.17,1.33,1.33,0,0,0,.6-.15,2.26,2.26,0,0,1,.6-.21.47.47,0,0,1,.38-.17.31.31,0,0,0,.32-.2l.42-.1a1.14,1.14,0,0,0,.39-.18s0,0,0,0,0,0,.06,0v-.06a1,1,0,0,1,.39-.14.5.5,0,0,0,.36-.22,1.22,1.22,0,0,0,.7-.2h0s0,0,0,0h0s0,0,0,0,0,0,.07,0a4.93,4.93,0,0,0,.78-.29l.87-.43a.08.08,0,0,0,.11,0s.08,0,.14,0a1.19,1.19,0,0,1,.45-.17,2.89,2.89,0,0,0,.47-.11,2.33,2.33,0,0,0,.33-.14.86.86,0,0,1,.36-.08.73.73,0,0,0,.42-.14,1.35,1.35,0,0,1,.42-.2H141c0,.05,0,.08-.07.08s-.07,0-.07.08a.23.23,0,0,0-.28.07.25.25,0,0,1-.28.07s0,.06-.06.06,0,0,0,.05Zm-7.36-1.12a.13.13,0,0,1,.22,0c.09.07.17.06.22,0s0,.11,0,.11,0,0,.07,0l.08-.08s0,0,.07,0a.06.06,0,0,1,.07,0h.07a.22.22,0,0,0,.25-.17c0-.13.13-.19.22-.17a.31.31,0,0,1,.24-.14c.09,0,.15-.06.21-.17a1.19,1.19,0,0,0,.42-.11,2.53,2.53,0,0,0,.64-.45l.22-.42a1.23,1.23,0,0,1,.25-.36.16.16,0,0,0-.15,0l-.2.08-.2.1c-.07,0-.11,0-.13,0l-.25.21a.65.65,0,0,1-.25.15.46.46,0,0,0-.32.21.23.23,0,0,1-.29.12.9.9,0,0,1-.14.2.15.15,0,0,1-.2,0l-.11.11a.42.42,0,0,1-.17.05s0,0,0,0,0,0,0,0a.09.09,0,0,0-.12,0s-.06.07-.1.07,0,0,0,0v.06A2.71,2.71,0,0,1,133,32a.89.89,0,0,0-.32.32h-.06v.08s.06,0,.07,0,0,0,.07,0Z"/><path class="cls-3" d="M111.63,33.89a.33.33,0,0,0,.26-.1l.24-.24a2.55,2.55,0,0,1,.28-.25l.53-.49a5.47,5.47,0,0,1,.59-.49l.29-.21a1.28,1.28,0,0,0,.29-.24,2.2,2.2,0,0,1,.28-.18,1.14,1.14,0,0,0,.25-.18l.11-.12a.58.58,0,0,1,.14-.13,3.59,3.59,0,0,0,.35-.21,3.72,3.72,0,0,0,.35-.24,3.48,3.48,0,0,0,.38-.2,1,1,0,0,0,.32-.31,1.09,1.09,0,0,0,.57-.22,3.92,3.92,0,0,1,.54-.33.41.41,0,0,1,.17-.07.19.19,0,0,0,.14-.07,4.41,4.41,0,0,1,.54-.24,3.75,3.75,0,0,0,.6-.24.58.58,0,0,0,.26,0,1.28,1.28,0,0,0,.26-.1c.54-.11,1.12-.21,1.73-.28s1.16-.13,1.65-.17t0,.06s0,.05.06,0,0,0,0,0,0-.05,0-.07.09,0,.11,0a.66.66,0,0,1,.22.22.47.47,0,0,0,.22.2s0,0,0,0-.06,0-.06,0a.13.13,0,0,0,.13,0,.35.35,0,0,0,.12-.07.41.41,0,0,1,.11-.07s.07,0,.11,0a.54.54,0,0,0,.17-.43.86.86,0,0,1,.14-.49.66.66,0,0,1,0-.36.47.47,0,0,0,0-.31s0,0,0,0h.06q.14-.5.24-1a4.67,4.67,0,0,1,.29-1c0-.07,0-.12,0-.14s.06,0,.06,0a.06.06,0,0,1,.06-.06.71.71,0,0,1,.07-.28,2.37,2.37,0,0,1,.15-.28v-.14a9.53,9.53,0,0,0,.52-1.28,6.46,6.46,0,0,1,.54-1.26,7.41,7.41,0,0,1,.85-1.63c.34-.49.67-1,1-1.55a.47.47,0,0,0,.17-.14.4.4,0,0,1,.17-.14s0-.06,0-.06a.28.28,0,0,1,0-.06,3.73,3.73,0,0,1,.36-.32,1.56,1.56,0,0,0,.33-.35,2.14,2.14,0,0,0,.32-.2,2.26,2.26,0,0,0,.29-.25.6.6,0,0,0,.29.06c.12,0,.18.07.18.2a.18.18,0,0,0,.14-.06.38.38,0,0,1,.11-.08.17.17,0,0,1,.11,0s.07,0,.11,0,.12.15.12.33-.06.28-.21.28c0,.07,0,.12,0,.14a.22.22,0,0,0,0,.14c.07,0,.12,0,.13,0s0,0,.12,0,.08-.14.14-.08,0,.1,0,.13l-.08.1c0,.13.07.27.11.42s.07.29.11.42,0,.09,0,.22h-.06a.34.34,0,0,1,0,.26.67.67,0,0,0,0,.24c0,.28-.07.57-.1.87a3.68,3.68,0,0,1-.18.84,5,5,0,0,1-.4,1.06,6.53,6.53,0,0,0-.43,1.06,2.18,2.18,0,0,0-.25.59,6.21,6.21,0,0,1-.2.61c-.11.26-.23.51-.35.74a2.43,2.43,0,0,0-.24.79.21.21,0,0,0-.12.18.77.77,0,0,1-.07.27,5.19,5.19,0,0,0-.31.7.32.32,0,0,0,0,.17,1,1,0,0,1,0,.17,1.54,1.54,0,0,1-.17.34.94.94,0,0,0-.14.33,1,1,0,0,0-.17.36c0,.15-.08.3-.11.45a1,1,0,0,0-.06.14l-.06.14a.51.51,0,0,0,0,.17.34.34,0,0,1,0,.17c0,.15,0,.29-.08.42a2.7,2.7,0,0,0-.08.39V31a.19.19,0,0,1-.08.14,1.61,1.61,0,0,1-.2.74,4.9,4.9,0,0,0-.31.65s-.06,0-.06,0,0,0-.06,0a.43.43,0,0,0-.07.2.85.85,0,0,1,0,.22c-.07.21-.15.41-.22.63a3.66,3.66,0,0,0-.17.65,5.17,5.17,0,0,0,0,.54,1.57,1.57,0,0,1-.08.49s-.06,0-.06,0l-.06,0a.09.09,0,0,0,0,.06s0,0-.06,0c0,.26-.08.51-.14.75s-.1.49-.14.75c0,0,0,.06,0,.06s0,0,0,.06a7.73,7.73,0,0,1-.15.78,4.84,4.84,0,0,0-.15.67.14.14,0,0,1-.06.11,1.4,1.4,0,0,0-.11.4c0,.14-.05.28-.08.43a.36.36,0,0,1-.06.22,1.8,1.8,0,0,0-.11.2.34.34,0,0,0,0,.2c0,.07,0,.11-.11.11h-.06a.82.82,0,0,1,0-.21.16.16,0,0,0-.08-.15.18.18,0,0,0,0,.21.49.49,0,0,1,0,.27.87.87,0,0,0,0,.21.68.68,0,0,0,0,.27.51.51,0,0,0-.15.33,1,1,0,0,0,0,.36.17.17,0,0,0-.12.18c0,.1,0,.21,0,.32a1.55,1.55,0,0,1,0,.31c0,.09-.08.14-.2.14a.25.25,0,0,0,0-.31c-.06,0-.07.1,0,.2a.53.53,0,0,1,0,.28.09.09,0,0,1-.1,0,.17.17,0,0,0-.1,0,.66.66,0,0,1,0-.28.81.81,0,0,0,0-.31.11.11,0,0,0-.06.11c0,.06,0,.08-.11.08a2,2,0,0,1,.06-.68,2.17,2.17,0,0,0,.06-.66.29.29,0,0,0-.17.08.56.56,0,0,1-.11.11,4.43,4.43,0,0,0,0,1,3.61,3.61,0,0,1,0,1,.18.18,0,0,1-.25,0,.82.82,0,0,0-.22-.17.5.5,0,0,0-.13.24,1.55,1.55,0,0,0-.06.31.82.82,0,0,1-.06.28.22.22,0,0,1-.15.15.28.28,0,0,1,.06-.08.06.06,0,0,0,0-.08s0,0-.06,0,0,0,0,0c0-.35,0-.67,0-1a5.26,5.26,0,0,0-.1-.92,1.07,1.07,0,0,1,0-.42.88.88,0,0,0-.07-.42,11.27,11.27,0,0,1,.08-1.35,8.86,8.86,0,0,0,.06-1.27c-.06.06-.1,0-.14,0,0,.32-.06.6-.07.87a2.36,2.36,0,0,1-.13.75c-.07,0-.1,0-.08-.08s0-.09-.11-.06a1.85,1.85,0,0,1,0-.53c0-.17.07-.33.11-.47a1.48,1.48,0,0,0,0-.21.58.58,0,0,1,0-.15,4.75,4.75,0,0,1,.14-.46.53.53,0,0,0,0-.46,1.45,1.45,0,0,0,.1-.68,1.74,1.74,0,0,1,.07-.71.27.27,0,0,0-.14.06.25.25,0,0,0-.11.14s0,0-.08,0c-.21.15-.4.29-.57.43s-.37.27-.57.4v.11a2,2,0,0,0-.39.31.76.76,0,0,1-.39.22s0,0,0,0,0,0,0,.07a4.58,4.58,0,0,0-.66.27l-.66.32c-.5.26-1,.48-1.45.67a1.46,1.46,0,0,1-.31.14,2.33,2.33,0,0,0-.33.14v0l0,0-.14-.06s-.06,0-.06,0,0,0,0,0l-.7.11-.73.11L114,39.6a2,2,0,0,1-.73-.17,2.74,2.74,0,0,1-.89-.68l-.75-.88a.44.44,0,0,1-.22.05,3.87,3.87,0,0,1-.2-.72,1.77,1.77,0,0,1,.06-.78.06.06,0,0,0-.07,0h-.07a.23.23,0,0,0,0-.25A.71.71,0,0,0,111,36a9.25,9.25,0,0,0,.53-2.06Zm5.49,1.84.11-.11s.06,0,.08.05l.5-.21a3.17,3.17,0,0,1,.5-.15.46.46,0,0,1,.32-.18,1.36,1.36,0,0,0,.35-.07.37.37,0,0,0,.17-.05.65.65,0,0,1,.17-.08s.07,0,.1,0h.1l0,0s0,0,.06,0a.9.9,0,0,1,.24-.07.4.4,0,0,0,.21-.1s0,0,0,0,0,0,0,0a1.59,1.59,0,0,0,.57-.14,4.09,4.09,0,0,0,.46-.25,1.68,1.68,0,0,1,.24-.08,1.31,1.31,0,0,1,.27-.05.33.33,0,0,0,.12-.06l.1-.08a1.58,1.58,0,0,1,.38-.18,1.93,1.93,0,0,0,.35-.15,1.73,1.73,0,0,0,0-.36.27.27,0,0,1,.14-.28,2.55,2.55,0,0,1,.17-.89,1.14,1.14,0,0,0,0-.81c-.06,0-.09,0-.1,0s0,0-.1,0,0,0,0,0,0,0,0,0a1.42,1.42,0,0,1-.42.1.44.44,0,0,0-.33.21h-.08a.56.56,0,0,1-.15.1.44.44,0,0,0-.15.1,16,16,0,0,0-1.48.79c-.46.29-1,.56-1.45.82,0,0-.06.09-.17.17a.52.52,0,0,1-.18.18.7.7,0,0,0-.21.21s-.07,0-.08,0a.11.11,0,0,1-.08,0,.46.46,0,0,0-.14.2h-.14l-.6.59-.6.56a.58.58,0,0,1-.27.35.89.89,0,0,0-.32.32v0a3.19,3.19,0,0,0,.6-.12,3.05,3.05,0,0,1,.66-.15Zm5.81-2.9a.68.68,0,0,0,0,.24,1.79,1.79,0,0,1,0,.21.36.36,0,0,0,.13-.21.19.19,0,0,0-.1-.24Zm.08-.09s0-.06,0-.08,0,0-.06,0S123,32.74,123,32.74Zm.08-.47a.17.17,0,0,1,0,.1.14.14,0,0,0-.06.12c.06,0,.09,0,.11-.08a.12.12,0,0,0,0-.14Zm.92,8.82s0-.07,0-.08,0,0,0,0S124,41,124,41,124,41.09,124,41.09Z"/><path class="cls-3" d="M140.11,33.5l0,0s0,0,0,0,.18.12.32,0a.74.74,0,0,1,.38-.14s0,.06,0,.07,0,0,0,0,.07.06.1,0,.06,0,.1,0a.08.08,0,0,1,0,.11c-.05,0-.07,0-.07,0s-.06,0-.06.07,0,0-.06,0a.41.41,0,0,1,0,.22.56.56,0,0,0,.22,0,1.09,1.09,0,0,0,0,.28.76.76,0,0,0-.21.18l-.21.21s-.06,0-.06,0,0,0-.06,0v.11c-.09,0-.14,0-.15,0a.4.4,0,0,1-.07.15c.06,0,.09,0,.11,0a.57.57,0,0,1,.11-.1.07.07,0,0,0,.06.07s.06,0,.06.07-.09,0-.11,0a.16.16,0,0,1-.11,0s0,0,0,0a.24.24,0,0,0,0,.07c-.06,0-.08,0-.08,0a.21.21,0,0,1,0,.13.54.54,0,0,0-.35.11.39.39,0,0,1-.32.08.2.2,0,0,1-.18.11.2.2,0,0,0-.18.14s-.06,0-.07,0,0,0,0,0a.36.36,0,0,1-.22.17.38.38,0,0,0-.22.11h0a.47.47,0,0,1-.17.25.13.13,0,0,1-.2,0,.45.45,0,0,1-.15.18.53.53,0,0,0-.15.15s.09,0,.15-.06.12,0,.15,0a1.06,1.06,0,0,1-.33.22l-.39.14c0,.07,0,.1,0,.07s0,0,0,0a.23.23,0,0,1-.11.07s-.06.06-.06.15c-.19,0-.27,0-.25.22,0,0-.07,0-.08-.06a4.34,4.34,0,0,1-.85.53,8.36,8.36,0,0,0-.88.5.71.71,0,0,0-.56.31,4.31,4.31,0,0,0-.79.35l-.74.43s0,.05,0,0a.09.09,0,0,1,.06,0,2.31,2.31,0,0,1-.68.39,2.19,2.19,0,0,0-.68.39,1.84,1.84,0,0,0-.67.17,3.1,3.1,0,0,1-.61.2.34.34,0,0,1-.15,0h-.21a2.35,2.35,0,0,1-.63,0c-.27,0-.5,0-.68-.08l-.12-.07-.15-.1a.08.08,0,0,0-.07,0s0,0-.07,0a.29.29,0,0,1-.11-.11.49.49,0,0,0-.17-.14l-.28-.18a1.28,1.28,0,0,0-.28-.15s0-.06,0-.07,0,0,0-.07-.08,0-.08,0,0-.07,0-.08,0,0,0-.06,0,0,0,0,0,0,0,0a4,4,0,0,1-.39-.66,2.39,2.39,0,0,0-.39-.6,1.09,1.09,0,0,0-.28-.64s0,0,0,0,0,0,0,0a1.85,1.85,0,0,1-.26-1.1,3.51,3.51,0,0,1,.24-1.24,1,1,0,0,0,.14-.25.36.36,0,0,1,.2-.2,4.67,4.67,0,0,1,.78-1.33l.92-1.05.18-.2a2.32,2.32,0,0,0,.21-.22,2,2,0,0,1,.25-.25l.29-.28.32-.28a2.5,2.5,0,0,0,.46-.46,1.32,1.32,0,0,1,.46-.38s0,0,0,0a.15.15,0,0,0,0-.06A1.13,1.13,0,0,0,131,30a1.5,1.5,0,0,0,.29-.35.29.29,0,0,0,.32-.14.58.58,0,0,1,.24-.25.9.9,0,0,1,.21-.08.58.58,0,0,0,.18-.11,1.4,1.4,0,0,1,.2-.17c.28-.19.56-.36.84-.52s.58-.31.89-.46a6.74,6.74,0,0,0,.64-.34,3.21,3.21,0,0,1,.73-.31c.06,0,.08,0,.08-.05a.13.13,0,0,0,.12,0l.13-.07a3.53,3.53,0,0,1,.46-.15l.46-.13h.52a1.09,1.09,0,0,1,.52.15c0,.06,0,.08,0,.08h-.06a2.71,2.71,0,0,0,.25.17.5.5,0,0,1,.2.28.62.62,0,0,0,.17.11c.06.17.13.26.22.28s-.05,0,0,0,0,0,0,0a.39.39,0,0,1,.14.18c0,.06.05.14.08.24a.6.6,0,0,0,.14.22.69.69,0,0,1,.14.22.3.3,0,0,1,.06.18.19.19,0,0,0,.06.15.36.36,0,0,1,0,.2.23.23,0,0,1,.13.15,1.41,1.41,0,0,1,0,.2,1.12,1.12,0,0,0,0,.21.43.43,0,0,0,0,.22.13.13,0,0,1,0,.1.1.1,0,0,0,0,.12,2.28,2.28,0,0,0-.39.52,3,3,0,0,1-.36.52.14.14,0,0,0-.07.06s0,0-.07.05a2.76,2.76,0,0,1-.21.25,1.74,1.74,0,0,1-.24.22.42.42,0,0,1-.12.08.26.26,0,0,0-.13.14.87.87,0,0,1-.14.12l-.14.13-.32.12a.52.52,0,0,0-.27.21c-.3.17-.58.35-.86.53a8.51,8.51,0,0,1-.89.5,1,1,0,0,1-.25.07.27.27,0,0,0-.2.13.35.35,0,0,0-.25.1.51.51,0,0,1-.28.12.11.11,0,0,0-.11.08l-.08,0a2.19,2.19,0,0,1-.57.29l-.6.18c-.08,0-.11,0-.11,0a.71.71,0,0,0-.21.08.28.28,0,0,1-.21,0,.26.26,0,0,1-.11.08,1.42,1.42,0,0,0-.42.06.75.75,0,0,1-.42,0s-.06,0-.06,0,0,0-.06.06a.71.71,0,0,0-.28-.06.21.21,0,0,1-.2-.14h-.11a.18.18,0,0,1-.14,0l-.45.47a2.52,2.52,0,0,0-.39.59s0,0,0,0h0a.24.24,0,0,1-.1.15s-.07.11-.07.24a.37.37,0,0,0-.2.31A.61.61,0,0,1,129,37a3.2,3.2,0,0,0,.66-.08,4.13,4.13,0,0,1,.66-.11s.06,0,.06-.07,0,0,.06-.07a.5.5,0,0,0,.31,0,.49.49,0,0,1,.28-.07s.05,0,.08-.11a.53.53,0,0,0,.33-.06,1.69,1.69,0,0,0,.33-.17,1.33,1.33,0,0,0,.6-.15,2.26,2.26,0,0,1,.6-.21.47.47,0,0,1,.38-.17.31.31,0,0,0,.32-.2l.42-.1a1.14,1.14,0,0,0,.39-.18s0,0,0,0,0,0,.06,0v-.06a1,1,0,0,1,.39-.14.5.5,0,0,0,.36-.22,1.22,1.22,0,0,0,.7-.2h0s0,0,0,0h0s0,0,0,0,0,0,.07,0a4.93,4.93,0,0,0,.78-.29l.87-.43a.08.08,0,0,0,.11,0s.08,0,.14,0a1.19,1.19,0,0,1,.45-.17,2.89,2.89,0,0,0,.47-.11,2.33,2.33,0,0,0,.33-.14.86.86,0,0,1,.36-.08.73.73,0,0,0,.42-.14,1.35,1.35,0,0,1,.42-.2H141c0,.05,0,.08-.07.08s-.07,0-.07.08a.23.23,0,0,0-.28.07.25.25,0,0,1-.28.07s0,.06-.06.06,0,0,0,.05Zm-7.36-1.12a.13.13,0,0,1,.22,0c.09.07.17.06.22,0s0,.11,0,.11,0,0,.07,0l.08-.08s0,0,.07,0a.06.06,0,0,1,.07,0h.07a.22.22,0,0,0,.25-.17c0-.13.13-.19.22-.17a.31.31,0,0,1,.24-.14c.09,0,.15-.06.21-.17a1.19,1.19,0,0,0,.42-.11,2.53,2.53,0,0,0,.64-.45l.22-.42a1.23,1.23,0,0,1,.25-.36.16.16,0,0,0-.15,0l-.2.08-.2.1c-.07,0-.11,0-.13,0l-.25.21a.65.65,0,0,1-.25.15.46.46,0,0,0-.32.21.23.23,0,0,1-.29.12.9.9,0,0,1-.14.2.15.15,0,0,1-.2,0l-.11.11a.42.42,0,0,1-.17.05s0,0,0,0,0,0,0,0a.09.09,0,0,0-.12,0s-.06.07-.1.07,0,0,0,0v.06A2.71,2.71,0,0,1,133,32a.89.89,0,0,0-.32.32h-.06v.08s.06,0,.07,0,0,0,.07,0Z"/><path class="cls-2" d="M80.93,27.94a4.31,4.31,0,0,1,.14-1.44,7.75,7.75,0,0,1,.49-1.3A13.4,13.4,0,0,1,82.24,24c.25-.4.5-.82.75-1.24a.15.15,0,0,0,.08,0l.11,0a.85.85,0,0,1,.32-.59,1,1,0,0,0,.34-.63.26.26,0,0,0,.29-.21.32.32,0,0,1,.28-.26,7.86,7.86,0,0,1,.5-.7c.17-.21.35-.42.54-.62,0,0,0,0,0-.06s0-.05,0-.06a2.72,2.72,0,0,1,.36-.43l.4-.38a4.56,4.56,0,0,0,.65-.79,3.63,3.63,0,0,1,.71-.81l.13-.07a.27.27,0,0,0,.12-.09.52.52,0,0,0,.12-.19.44.44,0,0,1,.12-.19s0-.06.06-.05,0,0,.07,0a.44.44,0,0,0,.1-.15.39.39,0,0,1,.08-.14.43.43,0,0,1,.12-.11.72.72,0,0,0,.15-.11,8,8,0,0,1,.67-.63,8.81,8.81,0,0,0,.72-.67c.08-.11.15-.21.22-.29l.22-.27a1.51,1.51,0,0,1,.4-.32,2.73,2.73,0,0,0,.45-.36.45.45,0,0,1,.2-.23.33.33,0,0,0,.17-.23l.29-.15a2.48,2.48,0,0,0,.31-.18.56.56,0,0,0,.18-.26,2.17,2.17,0,0,0,.75-.56,3.33,3.33,0,0,1,.71-.61.16.16,0,0,1,0-.1s0-.07,0-.12l.79-.37a5.07,5.07,0,0,1,.75-.25,3.26,3.26,0,0,0,1.39.19,3.59,3.59,0,0,1,1.39.17c.06,0,.1,0,.13-.08a1,1,0,0,0,.57.18,1.17,1.17,0,0,1,.53.13c.34.3.68.59,1,.87a12.25,12.25,0,0,1,1,.9s0,.1,0,.17a.49.49,0,0,0,.12.15,3.69,3.69,0,0,1,0,.73,5.58,5.58,0,0,1-.09.61c0,.2-.09.39-.14.58a3.84,3.84,0,0,0-.1.66.14.14,0,0,0-.1.13V16s-.06,0-.06,0,0,0-.06,0,0,.06,0,.08,0,0,0,.05a11.48,11.48,0,0,0-.83,1.73,9.47,9.47,0,0,1-.88,1.74.19.19,0,0,1,0,.16.22.22,0,0,0,0,.19,1.59,1.59,0,0,0-.27.37,2.35,2.35,0,0,1-.27.4,4.9,4.9,0,0,1-.76.37,7.07,7.07,0,0,0-.78.38.09.09,0,0,0-.12-.09l-.27,0a.91.91,0,0,0-.17-.17.43.43,0,0,0-.24-.07.27.27,0,0,0-.13-.26.83.83,0,0,0-.28-.08l-.29,0a.22.22,0,0,1-.16-.2s-.06-.07-.15-.06a1.45,1.45,0,0,1-.14-.77,2.67,2.67,0,0,0,0-.84c0-.24-.09-.47-.13-.68a1.24,1.24,0,0,1,0-.66.37.37,0,0,1-.06-.16,4.11,4.11,0,0,0-.86.72.92.92,0,0,0-.24.17,1.13,1.13,0,0,0-.15.21,10.52,10.52,0,0,0-.91.84l-.85.89-.45.41a5.92,5.92,0,0,0-.45.41,11,11,0,0,0-.86.92c-.28.33-.57.66-.88,1a5.11,5.11,0,0,1-.57.57,7.66,7.66,0,0,0-.57.57,1.82,1.82,0,0,0-.29.38,2.12,2.12,0,0,1-.29.38,1.4,1.4,0,0,1-.35.37c-.11.07-.15.21-.11.42-.06,0-.09,0-.11.05s0,.05-.11,0c-.3.43-.59.88-.87,1.34s-.54.94-.8,1.42a1.61,1.61,0,0,1,.29.09.47.47,0,0,0,.33,0,.65.65,0,0,0,.28-.12.35.35,0,0,1,.29-.06s.06,0,.06,0,0,0,.06,0a.94.94,0,0,0,.39-.1,1.87,1.87,0,0,1,.42-.13.23.23,0,0,1,.16,0h.17a6.69,6.69,0,0,0,.67-.27,2.7,2.7,0,0,1,.66-.22.66.66,0,0,1,.24,0c.07,0,.11,0,.13-.14a3.57,3.57,0,0,0,.93-.36,3.83,3.83,0,0,1,.85-.35s.06,0,.08-.06a.18.18,0,0,1,.07-.08,5.33,5.33,0,0,0,.81-.3,6.84,6.84,0,0,0,.74-.4A26.2,26.2,0,0,0,95.74,25a27.56,27.56,0,0,1,2.55-1.06,12.92,12.92,0,0,1,1.49-.7l1.62-.64a11,11,0,0,1,1.53-.72,7.35,7.35,0,0,0,1.44-.74,2,2,0,0,0,.75-.23l.73-.37a.44.44,0,0,1,.15.12.68.68,0,0,0,.12.12.8.8,0,0,1-.34.32.39.39,0,0,0-.21.4.37.37,0,0,0-.3.25,1,1,0,0,1-.24.38l-.26.15-.26.14-.48.41-.46.38a.45.45,0,0,0,0,.11.2.2,0,0,1,0,.11,1.13,1.13,0,0,1-.21.12c-.07,0-.08.09,0,.17-.19.07-.28.18-.25.33-.44.19-.82.34-1.14.46a2.43,2.43,0,0,0-.91.61l-1.08.63a6,6,0,0,0-1,.7c0,.07.06.07.14,0,0,.11,0,.18-.09.2a.36.36,0,0,1-.22,0,4.58,4.58,0,0,1-1.23.75,5.22,5.22,0,0,0-1.3.82,1.68,1.68,0,0,0-.47.17,2.43,2.43,0,0,0-.44.3c0,.08,0,.11,0,.09s.08,0,.07.06,0,.16-.08.17l-.18.07a.51.51,0,0,1-.41.38.64.64,0,0,0-.45.33l-.73.3a1.34,1.34,0,0,0-.62.45c-.09,0-.15,0-.17,0a2.67,2.67,0,0,1-1.07.59,3.35,3.35,0,0,0-1.16.6.62.62,0,0,0-.6.3l-.79.28-.82.31a7.2,7.2,0,0,1-.86.26,5.55,5.55,0,0,1-.87.13c-.06,0-.09,0-.08,0s0,.06,0,0L85.83,33c-.24,0-.47-.06-.7-.1a2.26,2.26,0,0,1-.63-.23,1.88,1.88,0,0,1-.55-.48s-.07,0-.07,0,0,0-.07,0a2,2,0,0,1-.75-.56,3.69,3.69,0,0,0-.71-.66.78.78,0,0,0-.2-.49.62.62,0,0,0-.4-.2,1.71,1.71,0,0,0-.09-.58q-.09-.3-.21-.6l-.22-.61a2.14,2.14,0,0,1-.13-.56s-.08,0-.1,0-.06,0-.1,0Z"/><path class="cls-2" d="M107.67,6.74a1.59,1.59,0,0,0,.18-.37l.18-.49a4.16,4.16,0,0,1,.24-.47,1.17,1.17,0,0,1,.32-.34s0,0,0,0l.15-.08.17-.07s.08,0,.09,0,0,.06,0,0l.06,0,.08-.06s0,0,0,0l.32-.06a.5.5,0,0,1,.17,0h.16a1.53,1.53,0,0,0,.3,0h.18a.21.21,0,0,0,.17-.06.78.78,0,0,0,.26,0,.44.44,0,0,1,.2,0,.25.25,0,0,1,.22,0,.37.37,0,0,0,.19,0s0,0,.09,0,.08,0,.09,0a.12.12,0,0,1,.11.06s.06,0,.12,0a.23.23,0,0,0,.07.07l.1.07q.12,0,.18.21a3.08,3.08,0,0,1,.1.41,2.35,2.35,0,0,1,0,.45,1.11,1.11,0,0,1,0,.3l-.11.12a.45.45,0,0,0-.1.17,2.11,2.11,0,0,1,0,.66,2.41,2.41,0,0,0-.09.64.41.41,0,0,0-.14.19.63.63,0,0,1,0,.21.74.74,0,0,1-.1.26.3.3,0,0,0,0,.19s0,.06,0,.07,0,0,0,0l-.07.1a.19.19,0,0,0,0,.15.55.55,0,0,1,0,.29l-.11.27,0,.17a.34.34,0,0,0-.14.34.26.26,0,0,1-.18.29s0,.09,0,.11,0,0,0,0a2.64,2.64,0,0,0-.36.71,2.25,2.25,0,0,1-.33.68q.12,0,.06.09s0,.07.06.09a.19.19,0,0,1-.17,0,5.39,5.39,0,0,1-.38,1.3,3.55,3.55,0,0,0-.31,1.2s0,.06,0,.08,0,0,0,.05a3.83,3.83,0,0,0-.38,1c-.08.35-.17.7-.25,1,.1,0,.12.05.06.08s-.07.06,0,.09L109,17a6.08,6.08,0,0,0-.39,1.63c0,.5-.09,1-.15,1.42,0,0-.06,0-.06.08s0,.07-.09.06,0,0,0,.08,0,.05,0,0a3.69,3.69,0,0,0-.19.8,2.48,2.48,0,0,1-.19.77s0,0,0,0,0,0,0,.05a1.45,1.45,0,0,0-.11.49,1.29,1.29,0,0,1-.18.56,1.16,1.16,0,0,0,0,.22c0,.11,0,.21-.16.31a.11.11,0,0,1,0-.12c0-.05,0-.09-.14-.13s-.08.12-.06.15,0,.05,0,.06a1.84,1.84,0,0,1-.11.57,1.68,1.68,0,0,0-.08.62,1.16,1.16,0,0,0-.1.46,3.31,3.31,0,0,1,0,.44s0,0,0,.05a.05.05,0,0,0,0,0,.41.41,0,0,0,0,.35.58.58,0,0,1,0,.37v.13a.07.07,0,0,1-.08.08c-.1,0-.14-.07-.14-.15a.46.46,0,0,1,0-.21l-.25.3c-.08.11-.09.19,0,.23-.2.13-.3.26-.29.39a1.14,1.14,0,0,1,0,.37.09.09,0,0,0-.08,0l-.07.07a.59.59,0,0,1-.1.29l-.19.27h-.28a.19.19,0,0,0-.12.11s-.07.05-.17,0-.08.18,0,.23,0,.09,0,.15,0,0,.06,0,0,0,.07-.1a.21.21,0,0,0,0,.15s0,.08,0,.12a.23.23,0,0,1,0,.11s0,.06-.11.09a.39.39,0,0,1-.18-.2.6.6,0,0,0-.08.18.39.39,0,0,1,0,.09c0,.14,0,.21,0,.21s0,.07,0,.21c-.13,0-.18.08-.17.1l0,.09c-.07.05-.11.05-.13,0s-.07-.07-.17-.07-.13-.16-.11-.19a.57.57,0,0,0,0-.27,7.49,7.49,0,0,1-.27-1.4,12.18,12.18,0,0,1,0-1.35,14,14,0,0,1,.11-1.41c.06-.48.11-1,.17-1.53a3.46,3.46,0,0,1,.07-1,4.57,4.57,0,0,0,.1-1,.74.74,0,0,1,0-.33c0-.11.06-.23.09-.37a.37.37,0,0,1-.08-.31c0-.13,0-.24,0-.34a.61.61,0,0,1,0-.42,1.36,1.36,0,0,0,.05-.46l.08-.06H105a2.88,2.88,0,0,1,.11-.81,2.57,2.57,0,0,0,.1-.73v-.14a7.17,7.17,0,0,0,.18-.9,3.58,3.58,0,0,1,.26-.91,2.9,2.9,0,0,1,.1-.81c.07-.28.14-.57.2-.88a.77.77,0,0,1,.06-.15c0-.06,0-.1,0-.11l0,0a.5.5,0,0,1,0-.21,1.14,1.14,0,0,0,.06-.15.13.13,0,0,0,0-.09s0,0,0,0c.08-.28.17-.55.27-.83a2.57,2.57,0,0,0,.15-.81l.24-.95c.08-.32.17-.62.25-.89a.19.19,0,0,1-.07-.24,1.07,1.07,0,0,0,.09-.27l.16-.48a2.2,2.2,0,0,1,.19-.46.66.66,0,0,0,.08-.26.59.59,0,0,0,0-.27c0-.13,0-.21-.1-.24a.53.53,0,0,1,.21-.4.48.48,0,0,0,.18-.4l-.06,0Zm-2.81,22.65s0-.07,0-.08a.34.34,0,0,1,0-.08s0,.05,0,0,0,0-.05,0,0,.17.11.15Z"/><path class="cls-2" d="M118.6,25.35l0,.14a1.22,1.22,0,0,0-.14-.16.24.24,0,0,0-.2,0s0,0,0,.06,0,0,0,.06-.15,0-.18-.07a.27.27,0,0,0-.16-.13s0-.06,0-.08a.57.57,0,0,1-.36-.09.87.87,0,0,1-.23-.27q-.1-.16-.21-.36a1.72,1.72,0,0,0-.24-.34.08.08,0,0,0,0-.11.07.07,0,0,1,0-.11.94.94,0,0,1-.25-.51,1.26,1.26,0,0,0-.25-.56s0,0,0,0,0,0,0,0-.1,0-.16.11a2.54,2.54,0,0,0-.14.25,1.83,1.83,0,0,0-.53.72s-.06,0-.06,0,0,0-.06,0a.11.11,0,0,0,0,.08.11.11,0,0,1,0,.08.56.56,0,0,0-.22.21.5.5,0,0,1-.22.21,1.76,1.76,0,0,1-.3.32,2.2,2.2,0,0,0-.3.32,1,1,0,0,0-.17.27.56.56,0,0,1-.17.24l-.36.21a1,1,0,0,0-.23.31.63.63,0,0,1-.29.29l-.12.15a.87.87,0,0,1-.17.16.62.62,0,0,1-.12.08.16.16,0,0,1-.09,0l-.21.18a.5.5,0,0,1-.22.1,1.12,1.12,0,0,1-.32,0l-.29-.06a.31.31,0,0,1-.25,0,.45.45,0,0,0-.28,0,.27.27,0,0,0-.1-.17,1,1,0,0,0-.17-.1.62.62,0,0,1-.17-.11.36.36,0,0,1-.11-.21s-.05.05-.07,0,0,0,0,0a.21.21,0,0,0-.12-.05s0,0,0-.06,0,0,0,.06a5.34,5.34,0,0,1-.44-.39,4.09,4.09,0,0,0-.44-.39,1.44,1.44,0,0,1-.17-.48,2.2,2.2,0,0,1,0-.5s0-.05,0,0,0,0,0,0a4.06,4.06,0,0,1,0-1.57c.12-.46.24-.91.37-1.37a.21.21,0,0,1,0-.21.21.21,0,0,0,0-.21h.08a3.31,3.31,0,0,1,.23-1.05,5.44,5.44,0,0,0,.31-1c.12-.38.25-.8.37-1.26a.33.33,0,0,0,0-.19.51.51,0,0,1,0-.22.63.63,0,0,1,.11-.29.44.44,0,0,0,0-.33,1,1,0,0,0,.18-.6,1.26,1.26,0,0,1,.17-.65q-.07-.13,0-.21a.47.47,0,0,0,.12-.18s0,0,0,0,0,0,0,.06a.62.62,0,0,1,.27-.09.25.25,0,0,0,.22-.17s0,0,0,0,0,.05,0,.07.09,0,.15,0l0-.06,1,.11a1.46,1.46,0,0,1,.85.42h.11a.51.51,0,0,0,.08.21.33.33,0,0,1,.07.16l.07.38a4,4,0,0,1,.07.57,1.06,1.06,0,0,1-.08.48l-.06.05-.06.08,0,.17a1.12,1.12,0,0,0,0,.16l0,.16a6.88,6.88,0,0,1-.54,1.43,1,1,0,0,1-.1.4,1,1,0,0,0-.1.4.54.54,0,0,0-.07.17,1.62,1.62,0,0,0,0,.19v.06a.4.4,0,0,1-.08.2,1.27,1.27,0,0,0-.12.23.07.07,0,0,0,0,.06.34.34,0,0,1,0,.09l0,.12s0,.05,0,0,0,0,0,0q.5-.57,1-1.17a5.89,5.89,0,0,0,.76-1.31s.07,0,.07,0,0,0,.06,0c.27-.48.55-1,.84-1.42s.57-.91.85-1.34a.63.63,0,0,1,.19-.46.77.77,0,0,0,.23-.41,1.12,1.12,0,0,0,.17-.22c.07-.1.08-.17,0-.22a2.43,2.43,0,0,1,.2-.25.32.32,0,0,0,.08-.28.43.43,0,0,0,.26-.31.4.4,0,0,1,.2-.3,2.25,2.25,0,0,0,0-.22.32.32,0,0,1,.06-.17s0,0,0-.07,0,0,0-.1l.07-.1v-.11a.07.07,0,0,1,.06-.07l0-.11a.26.26,0,0,0,.28-.12.29.29,0,0,1,.3-.12c0,.06,0,.1-.06.12a.8.8,0,0,0,.26,0,.23.23,0,0,0,.07.07.32.32,0,0,1,.08.13s0,0,0,0,0,0-.09,0,0,.07.07.1a.17.17,0,0,1-.08.16c.06,0,.12,0,.17-.07a.2.2,0,0,1,.23-.08,1.46,1.46,0,0,1,.35.22.35.35,0,0,0,.38,0,.42.42,0,0,0,.08.13l.1.07s0,.06,0,.07,0,0,0,.06a.23.23,0,0,1,.18.22.86.86,0,0,0,.11.32.63.63,0,0,1,0,.32.26.26,0,0,0,.07.3,3.4,3.4,0,0,0-.1.41,1,1,0,0,1-.13.36A8.44,8.44,0,0,1,120.2,17a9.67,9.67,0,0,0-.3,1.34s-.05,0,0,.05,0,0,0,0a1.09,1.09,0,0,1-.09.43.72.72,0,0,0-.07.39s0,0,0,.05,0,0,0,.05a.33.33,0,0,1,0,.29.65.65,0,0,0-.07.35,7.87,7.87,0,0,0-.1,1.38c0,.47,0,1,0,1.53a.07.07,0,0,0-.05,0,3.3,3.3,0,0,1,.1.9,3.32,3.32,0,0,0,.13.9s0,0,0,0,0,0,0,0a.2.2,0,0,0,.07.21.34.34,0,0,1,.08.3.25.25,0,0,1-.13.05.12.12,0,0,0-.1.1.18.18,0,0,0-.2.15.51.51,0,0,1-.18-.08.19.19,0,0,0-.15,0s0,0,0,.06,0,.05,0,.06a.15.15,0,0,1-.13-.09.32.32,0,0,0-.11-.12Zm-5.46-3.65a.17.17,0,0,1-.11,0,.25.25,0,0,1,0,.09.25.25,0,0,1,0,.08s.06,0,.06-.05,0-.1,0-.11Z"/><path class="cls-2" d="M123.27,25.46s0-.1,0-.17a1.38,1.38,0,0,1,0-.26,1,1,0,0,1-.71-.36,3.67,3.67,0,0,1-.53-.73.08.08,0,0,0,0,.11.19.19,0,0,1,0,.16l-.2,0a.24.24,0,0,1-.15,0,2.48,2.48,0,0,1-.2-.56,4,4,0,0,0-.17-.59s0,0,0,0,0,0,0,0q-.06-.5-.09-1a3.41,3.41,0,0,1,.06-.93,6.49,6.49,0,0,1,0-1.82c.09-.56.15-1.16.19-1.79a.72.72,0,0,0,.1-.4c0-.14,0-.3,0-.47a6.44,6.44,0,0,0,.11-.66,4.87,4.87,0,0,1,.13-.72,1,1,0,0,0,0-.21.72.72,0,0,1,0-.23.5.5,0,0,0,0-.12.25.25,0,0,1,0-.12,2.21,2.21,0,0,0,.08-.37c0-.12,0-.25,0-.36s0-.07,0-.16a1.09,1.09,0,0,1,0-.25.13.13,0,0,1,.07-.09s0-.08,0-.17h.06a4.46,4.46,0,0,1,.14-.71,4.84,4.84,0,0,1,.22-.61,1.05,1.05,0,0,1,.07-.65,1.33,1.33,0,0,0,.15-.52,3.27,3.27,0,0,1,.24-1,6.52,6.52,0,0,0,.28-.91h0l.48-1.47c.15-.45.3-1,.47-1.49.06,0,.09-.08.1-.22a5.89,5.89,0,0,0,.29-.63,2.86,2.86,0,0,1,.29-.58,3.48,3.48,0,0,1,.23-.71c.09-.2.18-.4.27-.63a.67.67,0,0,1,.13-.38.64.64,0,0,0,.13-.38c0-.08-.11-.11-.18-.08a.8.8,0,0,1,0-.31.46.46,0,0,1,.13-.21l.2-.16a.45.45,0,0,0,.16-.23.21.21,0,0,0,.21.08c.16-.18.33-.35.5-.51a1.91,1.91,0,0,1,.59-.36s.07.06.07.09,0,.06.07.09a.34.34,0,0,1-.2.08.16.16,0,0,0-.14.07c0,.14.11.21.2.19a1.27,1.27,0,0,1,.28,0,.37.37,0,0,1,0-.17s.07-.06.16-.06,0,.06,0,.07,0,0,0,.07a.12.12,0,0,0,.09,0s0,0,0,.13a.1.1,0,0,0,.08,0s0,0,.06,0,0,0,0,0,0,.05,0,.08.17,0,.15-.14a.19.19,0,0,1,.21.08.32.32,0,0,0,0,.27.39.39,0,0,1,0,.26s.07,0,.08,0,0,0,.08,0a.43.43,0,0,0,0,.3.21.21,0,0,0,.16.09s0,.1,0,.17.05.12,0,.17a.11.11,0,0,0,.12,0s0,.11,0,.17a.14.14,0,0,0,.07.13s.06,0,0,0,0,0,.06,0a4.18,4.18,0,0,0,.09.41c0,.13.07.24.1.35v.79s0,0,0,0a.57.57,0,0,1,0,.4c-.06.16-.09.29-.12.39a.68.68,0,0,0-.11.33,1.13,1.13,0,0,1-.08.35.92.92,0,0,1-.09.23l-.09.2a1.64,1.64,0,0,0-.09.44,2,2,0,0,1-.09.47.86.86,0,0,1-.15.28,1.11,1.11,0,0,0-.14.41,2.09,2.09,0,0,1-.11.43h-.08a.94.94,0,0,0-.06.24.73.73,0,0,1-.08.25.14.14,0,0,1,0,.11s0,0,0,.08-.08.21-.13.32a1.46,1.46,0,0,0-.1.34,2.18,2.18,0,0,0-.12.22.75.75,0,0,0,0,.26c-.19.41-.37.86-.54,1.34a14.23,14.23,0,0,0-.43,1.49h-.08a.9.9,0,0,1-.06.22.62.62,0,0,0,0,.28.79.79,0,0,0-.21.72.1.1,0,0,1,0-.05s0,0-.07,0a.83.83,0,0,0-.08.28.63.63,0,0,1-.1.29,3,3,0,0,0,.65-.27,2.49,2.49,0,0,1,.62-.26.38.38,0,0,1,.23-.08.16.16,0,0,0,.16-.13.79.79,0,0,0,.51-.1,4.6,4.6,0,0,1,.51-.22,1.78,1.78,0,0,1,.59-.05,1.12,1.12,0,0,1,.43-.1.51.51,0,0,0,.39-.21,6.49,6.49,0,0,0,.72,0,3.13,3.13,0,0,1,.75,0l.4-.06a.6.6,0,0,1,.4.11,1.51,1.51,0,0,1,.85.22,1.84,1.84,0,0,0,.77.29.2.2,0,0,0,.19.11,1.66,1.66,0,0,1,.32.43.62.62,0,0,0,.36.33.91.91,0,0,0,.19.35c.08.09.16.17.23.26a2.43,2.43,0,0,1,.21.29.87.87,0,0,1,.12.42s0,.05,0,.05,0,0,.05,0a2,2,0,0,0,.07.57,3.26,3.26,0,0,1,.11.48c0,.15,0,.33-.06.52a3.79,3.79,0,0,0-.05.58l-.09.07s0,.08,0,.17-.09,0-.09.07v.11a.39.39,0,0,1-.17.17,3.88,3.88,0,0,1-.47,1.13c-.2.32-.39.65-.57,1,0,0,0,0,0,0s0,0-.05,0a.53.53,0,0,1-.17.24,2.07,2.07,0,0,1-.24.17.15.15,0,0,1,0-.22l.2-.16s0-.07,0-.08,0,0,0-.08.08,0,.07-.1-.14,0-.18,0a1.13,1.13,0,0,1-.12.21,1.94,1.94,0,0,1-.4.52l-.47.45a1.48,1.48,0,0,0-.28.28,1.48,1.48,0,0,1-.28.28l-.11,0a1.91,1.91,0,0,1-.47.39,1.3,1.3,0,0,0-.43.44.17.17,0,0,0-.25,0,1.13,1.13,0,0,1-.19.19l-.72.42a3.24,3.24,0,0,0-.64.52s-.06,0-.12,0a1.4,1.4,0,0,1-.74.36,5.09,5.09,0,0,0-.77.19s-.06,0-.07,0a.3.3,0,0,0-.08-.07c-.07.14-.15.19-.23.14a.34.34,0,0,0-.26-.05s-.06,0-.08,0a.1.1,0,0,0,0-.06.23.23,0,0,0-.22.05.42.42,0,0,1-.21.11s0-.07,0-.09a.26.26,0,0,0,0-.09.52.52,0,0,0-.3-.2.73.73,0,0,0-.41,0q0-.08,0-.09v-.1s-.06,0-.07,0,0,0-.07,0v-.14a.28.28,0,0,1-.18-.2.25.25,0,0,0-.23-.18s0,0,0-.06,0-.05,0-.07a.24.24,0,0,0-.15,0,.25.25,0,0,1-.18,0c0-.09,0-.14,0-.14a.16.16,0,0,0,.12,0c-.07-.08-.16-.08-.25,0a.17.17,0,0,1,0-.19.61.61,0,0,0,0-.18.12.12,0,0,0-.08,0s-.06,0-.09,0,0,0,0,0,0,0,0-.06-.06-.08-.08-.07A.11.11,0,0,0,125,23a.11.11,0,0,1,0-.15.23.23,0,0,0,0-.16c0-.05-.07-.06-.13,0l-.14.07a.62.62,0,0,1,0-.31.53.53,0,0,0,0-.3.16.16,0,0,0-.08-.06s0,0,0,0-.06-.06,0-.09a.13.13,0,0,0,0-.1s0,0,0,.08,0,.06-.08.05c0,.23,0,.45-.07.66a2.69,2.69,0,0,1-.16.62.23.23,0,0,0-.1-.07.1.1,0,0,1-.07-.07,5.47,5.47,0,0,0-.17.65,4.27,4.27,0,0,1-.21.72.13.13,0,0,0,0,.09.09.09,0,0,1,0,.1s-.09,0-.15,0a.45.45,0,0,0-.12.21,0,0,0,0,1-.07,0,.08.08,0,0,0-.07,0,1.08,1.08,0,0,0-.07.27.46.46,0,0,1,0,.21Zm1.4-4.24a.79.79,0,0,0,.63.06.9.9,0,0,0,.45-.33.22.22,0,0,0,.27,0,.84.84,0,0,1,.24-.14s0,0,0,0,0,.05,0,.06a4,4,0,0,1,.4-.32,1,1,0,0,0,.3-.37c.06,0,.09,0,.11,0a.13.13,0,0,0,0-.09s0-.07,0-.09a1.27,1.27,0,0,0,.44-.42l.41-.41a3,3,0,0,1,.45-.36.12.12,0,0,1,.09,0,.18.18,0,0,0,.09,0l.21-.26a2.6,2.6,0,0,1,.24-.27.31.31,0,0,1,.11-.09.31.31,0,0,0,.11-.09.41.41,0,0,0,.24-.18,1.16,1.16,0,0,1,.22-.26.65.65,0,0,1,0-.21.48.48,0,0,0,0-.25s0,0,0,0a.2.2,0,0,1,.08-.17l.15-.12a3,3,0,0,0-.77.12,3.27,3.27,0,0,0-.67.28c-.22.11-.43.23-.63.35l-.62.35a.78.78,0,0,1-.41.41c0-.05,0-.08,0-.08s0,0,0,0a14,14,0,0,0-1.29.81,2.42,2.42,0,0,0-.88,1.39s0,.05,0,.06,0,.05.06.1l-.12.29a.88.88,0,0,0,0,.39Zm1.4-.1a.38.38,0,0,0-.2,0,.28.28,0,0,0-.19.23l.38-.24Z"/><path class="cls-3" d="M80.93,27.94a4.31,4.31,0,0,1,.14-1.44,7.75,7.75,0,0,1,.49-1.3A13.4,13.4,0,0,1,82.24,24c.25-.4.5-.82.75-1.24a.15.15,0,0,0,.08,0l.11,0a.85.85,0,0,1,.32-.59,1,1,0,0,0,.34-.63.26.26,0,0,0,.29-.21.32.32,0,0,1,.28-.26,7.86,7.86,0,0,1,.5-.7c.17-.21.35-.42.54-.62,0,0,0,0,0-.06s0-.05,0-.06a2.72,2.72,0,0,1,.36-.43l.4-.38a4.56,4.56,0,0,0,.65-.79,3.63,3.63,0,0,1,.71-.81l.13-.07a.27.27,0,0,0,.12-.09.52.52,0,0,0,.12-.19.44.44,0,0,1,.12-.19s0-.06.06-.05,0,0,.07,0a.44.44,0,0,0,.1-.15.39.39,0,0,1,.08-.14.43.43,0,0,1,.12-.11.72.72,0,0,0,.15-.11,8,8,0,0,1,.67-.63,8.81,8.81,0,0,0,.72-.67c.08-.11.15-.21.22-.29l.22-.27a1.51,1.51,0,0,1,.4-.32,2.73,2.73,0,0,0,.45-.36.45.45,0,0,1,.2-.23.33.33,0,0,0,.17-.23l.29-.15a2.48,2.48,0,0,0,.31-.18.56.56,0,0,0,.18-.26,2.17,2.17,0,0,0,.75-.56,3.33,3.33,0,0,1,.71-.61.16.16,0,0,1,0-.1s0-.07,0-.12l.79-.37a5.07,5.07,0,0,1,.75-.25,3.26,3.26,0,0,0,1.39.19,3.59,3.59,0,0,1,1.39.17c.06,0,.1,0,.13-.08a1,1,0,0,0,.57.18,1.17,1.17,0,0,1,.53.13c.34.3.68.59,1,.87a12.25,12.25,0,0,1,1,.9s0,.1,0,.17a.49.49,0,0,0,.12.15,3.69,3.69,0,0,1,0,.73,5.58,5.58,0,0,1-.09.61c0,.2-.09.39-.14.58a3.84,3.84,0,0,0-.1.66.14.14,0,0,0-.1.13V16s-.06,0-.06,0,0,0-.06,0,0,.06,0,.08,0,0,0,.05a11.48,11.48,0,0,0-.83,1.73,9.47,9.47,0,0,1-.88,1.74.19.19,0,0,1,0,.16.22.22,0,0,0,0,.19,1.59,1.59,0,0,0-.27.37,2.35,2.35,0,0,1-.27.4,4.9,4.9,0,0,1-.76.37,7.07,7.07,0,0,0-.78.38.09.09,0,0,0-.12-.09l-.27,0a.91.91,0,0,0-.17-.17.43.43,0,0,0-.24-.07.27.27,0,0,0-.13-.26.83.83,0,0,0-.28-.08l-.29,0a.22.22,0,0,1-.16-.2s-.06-.07-.15-.06a1.45,1.45,0,0,1-.14-.77,2.67,2.67,0,0,0,0-.84c0-.24-.09-.47-.13-.68a1.24,1.24,0,0,1,0-.66.37.37,0,0,1-.06-.16,4.11,4.11,0,0,0-.86.72.92.92,0,0,0-.24.17,1.13,1.13,0,0,0-.15.21,10.52,10.52,0,0,0-.91.84l-.85.89-.45.41a5.92,5.92,0,0,0-.45.41,11,11,0,0,0-.86.92c-.28.33-.57.66-.88,1a5.11,5.11,0,0,1-.57.57,7.66,7.66,0,0,0-.57.57,1.82,1.82,0,0,0-.29.38,2.12,2.12,0,0,1-.29.38,1.4,1.4,0,0,1-.35.37c-.11.07-.15.21-.11.42-.06,0-.09,0-.11.05s0,.05-.11,0c-.3.43-.59.88-.87,1.34s-.54.94-.8,1.42a1.61,1.61,0,0,1,.29.09.47.47,0,0,0,.33,0,.65.65,0,0,0,.28-.12.35.35,0,0,1,.29-.06s.06,0,.06,0,0,0,.06,0a.94.94,0,0,0,.39-.1,1.87,1.87,0,0,1,.42-.13.23.23,0,0,1,.16,0h.17a6.69,6.69,0,0,0,.67-.27,2.7,2.7,0,0,1,.66-.22.66.66,0,0,1,.24,0c.07,0,.11,0,.13-.14a3.57,3.57,0,0,0,.93-.36,3.83,3.83,0,0,1,.85-.35s.06,0,.08-.06a.18.18,0,0,1,.07-.08,5.33,5.33,0,0,0,.81-.3,6.84,6.84,0,0,0,.74-.4A26.2,26.2,0,0,0,95.74,25a27.56,27.56,0,0,1,2.55-1.06,12.92,12.92,0,0,1,1.49-.7l1.62-.64a11,11,0,0,1,1.53-.72,7.35,7.35,0,0,0,1.44-.74,2,2,0,0,0,.75-.23l.73-.37a.44.44,0,0,1,.15.12.68.68,0,0,0,.12.12.8.8,0,0,1-.34.32.39.39,0,0,0-.21.4.37.37,0,0,0-.3.25,1,1,0,0,1-.24.38l-.26.15-.26.14-.48.41-.46.38a.45.45,0,0,0,0,.11.2.2,0,0,1,0,.11,1.13,1.13,0,0,1-.21.12c-.07,0-.08.09,0,.17-.19.07-.28.18-.25.33-.44.19-.82.34-1.14.46a2.43,2.43,0,0,0-.91.61l-1.08.63a6,6,0,0,0-1,.7c0,.07.06.07.14,0,0,.11,0,.18-.09.2a.36.36,0,0,1-.22,0,4.58,4.58,0,0,1-1.23.75,5.22,5.22,0,0,0-1.3.82,1.68,1.68,0,0,0-.47.17,2.43,2.43,0,0,0-.44.3c0,.08,0,.11,0,.09s.08,0,.07.06,0,.16-.08.17l-.18.07a.51.51,0,0,1-.41.38.64.64,0,0,0-.45.33l-.73.3a1.34,1.34,0,0,0-.62.45c-.09,0-.15,0-.17,0a2.67,2.67,0,0,1-1.07.59,3.35,3.35,0,0,0-1.16.6.62.62,0,0,0-.6.3l-.79.28-.82.31a7.2,7.2,0,0,1-.86.26,5.55,5.55,0,0,1-.87.13c-.06,0-.09,0-.08,0s0,.06,0,0L85.83,33c-.24,0-.47-.06-.7-.1a2.26,2.26,0,0,1-.63-.23,1.88,1.88,0,0,1-.55-.48s-.07,0-.07,0,0,0-.07,0a2,2,0,0,1-.75-.56,3.69,3.69,0,0,0-.71-.66.78.78,0,0,0-.2-.49.62.62,0,0,0-.4-.2,1.71,1.71,0,0,0-.09-.58q-.09-.3-.21-.6l-.22-.61a2.14,2.14,0,0,1-.13-.56s-.08,0-.1,0-.06,0-.1,0Z"/><path class="cls-3" d="M107.67,6.74a1.59,1.59,0,0,0,.18-.37l.18-.49a4.16,4.16,0,0,1,.24-.47,1.17,1.17,0,0,1,.32-.34s0,0,0,0l.15-.08.17-.07s.08,0,.09,0,0,.06,0,0l.06,0,.08-.06s0,0,0,0l.32-.06a.5.5,0,0,1,.17,0h.16a1.53,1.53,0,0,0,.3,0h.18a.21.21,0,0,0,.17-.06.78.78,0,0,0,.26,0,.44.44,0,0,1,.2,0,.25.25,0,0,1,.22,0,.37.37,0,0,0,.19,0s0,0,.09,0,.08,0,.09,0a.12.12,0,0,1,.11.06s.06,0,.12,0a.23.23,0,0,0,.07.07l.1.07q.12,0,.18.21a3.08,3.08,0,0,1,.1.41,2.35,2.35,0,0,1,0,.45,1.11,1.11,0,0,1,0,.3l-.11.12a.45.45,0,0,0-.1.17,2.11,2.11,0,0,1,0,.66,2.41,2.41,0,0,0-.09.64.41.41,0,0,0-.14.19.63.63,0,0,1,0,.21.74.74,0,0,1-.1.26.3.3,0,0,0,0,.19s0,.06,0,.07,0,0,0,0l-.07.1a.19.19,0,0,0,0,.15.55.55,0,0,1,0,.29l-.11.27,0,.17a.34.34,0,0,0-.14.34.26.26,0,0,1-.18.29s0,.09,0,.11,0,0,0,0a2.64,2.64,0,0,0-.36.71,2.25,2.25,0,0,1-.33.68q.12,0,.06.09s0,.07.06.09a.19.19,0,0,1-.17,0,5.39,5.39,0,0,1-.38,1.3,3.55,3.55,0,0,0-.31,1.2s0,.06,0,.08,0,0,0,.05a3.83,3.83,0,0,0-.38,1c-.08.35-.17.7-.25,1,.1,0,.12.05.06.08s-.07.06,0,.09L109,17a6.08,6.08,0,0,0-.39,1.63c0,.5-.09,1-.15,1.42,0,0-.06,0-.06.08s0,.07-.09.06,0,0,0,.08,0,.05,0,0a3.69,3.69,0,0,0-.19.8,2.48,2.48,0,0,1-.19.77s0,0,0,0,0,0,0,.05a1.45,1.45,0,0,0-.11.49,1.29,1.29,0,0,1-.18.56,1.16,1.16,0,0,0,0,.22c0,.11,0,.21-.16.31a.11.11,0,0,1,0-.12c0-.05,0-.09-.14-.13s-.08.12-.06.15,0,.05,0,.06a1.84,1.84,0,0,1-.11.57,1.68,1.68,0,0,0-.08.62,1.16,1.16,0,0,0-.1.46,3.31,3.31,0,0,1,0,.44s0,0,0,.05a.05.05,0,0,0,0,0,.41.41,0,0,0,0,.35.58.58,0,0,1,0,.37v.13a.07.07,0,0,1-.08.08c-.1,0-.14-.07-.14-.15a.46.46,0,0,1,0-.21l-.25.3c-.08.11-.09.19,0,.23-.2.13-.3.26-.29.39a1.14,1.14,0,0,1,0,.37.09.09,0,0,0-.08,0l-.07.07a.59.59,0,0,1-.1.29l-.19.27h-.28a.19.19,0,0,0-.12.11s-.07.05-.17,0-.08.18,0,.23,0,.09,0,.15,0,0,.06,0,0,0,.07-.1a.21.21,0,0,0,0,.15s0,.08,0,.12a.23.23,0,0,1,0,.11s0,.06-.11.09a.39.39,0,0,1-.18-.2.6.6,0,0,0-.08.18.39.39,0,0,1,0,.09c0,.14,0,.21,0,.21s0,.07,0,.21c-.13,0-.18.08-.17.1l0,.09c-.07.05-.11.05-.13,0s-.07-.07-.17-.07-.13-.16-.11-.19a.57.57,0,0,0,0-.27,7.49,7.49,0,0,1-.27-1.4,12.18,12.18,0,0,1,0-1.35,14,14,0,0,1,.11-1.41c.06-.48.11-1,.17-1.53a3.46,3.46,0,0,1,.07-1,4.57,4.57,0,0,0,.1-1,.74.74,0,0,1,0-.33c0-.11.06-.23.09-.37a.37.37,0,0,1-.08-.31c0-.13,0-.24,0-.34a.61.61,0,0,1,0-.42,1.36,1.36,0,0,0,.05-.46l.08-.06H105a2.88,2.88,0,0,1,.11-.81,2.57,2.57,0,0,0,.1-.73v-.14a7.17,7.17,0,0,0,.18-.9,3.58,3.58,0,0,1,.26-.91,2.9,2.9,0,0,1,.1-.81c.07-.28.14-.57.2-.88a.77.77,0,0,1,.06-.15c0-.06,0-.1,0-.11l0,0a.5.5,0,0,1,0-.21,1.14,1.14,0,0,0,.06-.15.13.13,0,0,0,0-.09s0,0,0,0c.08-.28.17-.55.27-.83a2.57,2.57,0,0,0,.15-.81l.24-.95c.08-.32.17-.62.25-.89a.19.19,0,0,1-.07-.24,1.07,1.07,0,0,0,.09-.27l.16-.48a2.2,2.2,0,0,1,.19-.46.66.66,0,0,0,.08-.26.59.59,0,0,0,0-.27c0-.13,0-.21-.1-.24a.53.53,0,0,1,.21-.4.48.48,0,0,0,.18-.4l-.06,0Zm-2.81,22.65s0-.07,0-.08a.34.34,0,0,1,0-.08s0,.05,0,0,0,0-.05,0,0,.17.11.15Z"/><path class="cls-3" d="M118.6,25.35l0,.14a1.22,1.22,0,0,0-.14-.16.24.24,0,0,0-.2,0s0,0,0,.06,0,0,0,.06-.15,0-.18-.07a.27.27,0,0,0-.16-.13s0-.06,0-.08a.57.57,0,0,1-.36-.09.87.87,0,0,1-.23-.27q-.1-.16-.21-.36a1.72,1.72,0,0,0-.24-.34.08.08,0,0,0,0-.11.07.07,0,0,1,0-.11.94.94,0,0,1-.25-.51,1.26,1.26,0,0,0-.25-.56s0,0,0,0,0,0,0,0-.1,0-.16.11a2.54,2.54,0,0,0-.14.25,1.83,1.83,0,0,0-.53.72s-.06,0-.06,0,0,0-.06,0a.11.11,0,0,0,0,.08.11.11,0,0,1,0,.08.56.56,0,0,0-.22.21.5.5,0,0,1-.22.21,1.76,1.76,0,0,1-.3.32,2.2,2.2,0,0,0-.3.32,1,1,0,0,0-.17.27.56.56,0,0,1-.17.24l-.36.21a1,1,0,0,0-.23.31.63.63,0,0,1-.29.29l-.12.15a.87.87,0,0,1-.17.16.62.62,0,0,1-.12.08.16.16,0,0,1-.09,0l-.21.18a.5.5,0,0,1-.22.1,1.12,1.12,0,0,1-.32,0l-.29-.06a.31.31,0,0,1-.25,0,.45.45,0,0,0-.28,0,.27.27,0,0,0-.1-.17,1,1,0,0,0-.17-.1.62.62,0,0,1-.17-.11.36.36,0,0,1-.11-.21s-.05.05-.07,0,0,0,0,0a.21.21,0,0,0-.12-.05s0,0,0-.06,0,0,0,.06a5.34,5.34,0,0,1-.44-.39,4.09,4.09,0,0,0-.44-.39,1.44,1.44,0,0,1-.17-.48,2.2,2.2,0,0,1,0-.5s0-.05,0,0,0,0,0,0a4.06,4.06,0,0,1,0-1.57c.12-.46.24-.91.37-1.37a.21.21,0,0,1,0-.21.21.21,0,0,0,0-.21h.08a3.31,3.31,0,0,1,.23-1.05,5.44,5.44,0,0,0,.31-1c.12-.38.25-.8.37-1.26a.33.33,0,0,0,0-.19.51.51,0,0,1,0-.22.63.63,0,0,1,.11-.29.44.44,0,0,0,0-.33,1,1,0,0,0,.18-.6,1.26,1.26,0,0,1,.17-.65q-.07-.13,0-.21a.47.47,0,0,0,.12-.18s0,0,0,0,0,0,0,.06a.62.62,0,0,1,.27-.09.25.25,0,0,0,.22-.17s0,0,0,0,0,.05,0,.07.09,0,.15,0l0-.06,1,.11a1.46,1.46,0,0,1,.85.42h.11a.51.51,0,0,0,.08.21.33.33,0,0,1,.07.16l.07.38a4,4,0,0,1,.07.57,1.06,1.06,0,0,1-.08.48l-.06.05-.06.08,0,.17a1.12,1.12,0,0,0,0,.16l0,.16a6.88,6.88,0,0,1-.54,1.43,1,1,0,0,1-.1.4,1,1,0,0,0-.1.4.54.54,0,0,0-.07.17,1.62,1.62,0,0,0,0,.19v.06a.4.4,0,0,1-.08.2,1.27,1.27,0,0,0-.12.23.07.07,0,0,0,0,.06.34.34,0,0,1,0,.09l0,.12s0,.05,0,0,0,0,0,0q.5-.57,1-1.17a5.89,5.89,0,0,0,.76-1.31s.07,0,.07,0,0,0,.06,0c.27-.48.55-1,.84-1.42s.57-.91.85-1.34a.63.63,0,0,1,.19-.46.77.77,0,0,0,.23-.41,1.12,1.12,0,0,0,.17-.22c.07-.1.08-.17,0-.22a2.43,2.43,0,0,1,.2-.25.32.32,0,0,0,.08-.28.43.43,0,0,0,.26-.31.4.4,0,0,1,.2-.3,2.25,2.25,0,0,0,0-.22.32.32,0,0,1,.06-.17s0,0,0-.07,0,0,0-.1l.07-.1v-.11a.07.07,0,0,1,.06-.07l0-.11a.26.26,0,0,0,.28-.12.29.29,0,0,1,.3-.12c0,.06,0,.1-.06.12a.8.8,0,0,0,.26,0,.23.23,0,0,0,.07.07.32.32,0,0,1,.08.13s0,0,0,0,0,0-.09,0,0,.07.07.1a.17.17,0,0,1-.08.16c.06,0,.12,0,.17-.07a.2.2,0,0,1,.23-.08,1.46,1.46,0,0,1,.35.22.35.35,0,0,0,.38,0,.42.42,0,0,0,.08.13l.1.07s0,.06,0,.07,0,0,0,.06a.23.23,0,0,1,.18.22.86.86,0,0,0,.11.32.63.63,0,0,1,0,.32.26.26,0,0,0,.07.3,3.4,3.4,0,0,0-.1.41,1,1,0,0,1-.13.36A8.44,8.44,0,0,1,120.2,17a9.67,9.67,0,0,0-.3,1.34s-.05,0,0,.05,0,0,0,0a1.09,1.09,0,0,1-.09.43.72.72,0,0,0-.07.39s0,0,0,.05,0,0,0,.05a.33.33,0,0,1,0,.29.65.65,0,0,0-.07.35,7.87,7.87,0,0,0-.1,1.38c0,.47,0,1,0,1.53a.07.07,0,0,0-.05,0,3.3,3.3,0,0,1,.1.9,3.32,3.32,0,0,0,.13.9s0,0,0,0,0,0,0,0a.2.2,0,0,0,.07.21.34.34,0,0,1,.08.3.25.25,0,0,1-.13.05.12.12,0,0,0-.1.1.18.18,0,0,0-.2.15.51.51,0,0,1-.18-.08.19.19,0,0,0-.15,0s0,0,0,.06,0,.05,0,.06a.15.15,0,0,1-.13-.09.32.32,0,0,0-.11-.12Zm-5.46-3.65a.17.17,0,0,1-.11,0,.25.25,0,0,1,0,.09.25.25,0,0,1,0,.08s.06,0,.06-.05,0-.1,0-.11Z"/><path class="cls-3" d="M123.27,25.46s0-.1,0-.17a1.38,1.38,0,0,1,0-.26,1,1,0,0,1-.71-.36,3.67,3.67,0,0,1-.53-.73.08.08,0,0,0,0,.11.19.19,0,0,1,0,.16l-.2,0a.24.24,0,0,1-.15,0,2.48,2.48,0,0,1-.2-.56,4,4,0,0,0-.17-.59s0,0,0,0,0,0,0,0q-.06-.5-.09-1a3.41,3.41,0,0,1,.06-.93,6.49,6.49,0,0,1,0-1.82c.09-.56.15-1.16.19-1.79a.72.72,0,0,0,.1-.4c0-.14,0-.3,0-.47a6.44,6.44,0,0,0,.11-.66,4.87,4.87,0,0,1,.13-.72,1,1,0,0,0,0-.21.72.72,0,0,1,0-.23.5.5,0,0,0,0-.12.25.25,0,0,1,0-.12,2.21,2.21,0,0,0,.08-.37c0-.12,0-.25,0-.36s0-.07,0-.16a1.09,1.09,0,0,1,0-.25.13.13,0,0,1,.07-.09s0-.08,0-.17h.06a4.46,4.46,0,0,1,.14-.71,4.84,4.84,0,0,1,.22-.61,1.05,1.05,0,0,1,.07-.65,1.33,1.33,0,0,0,.15-.52,3.27,3.27,0,0,1,.24-1,6.52,6.52,0,0,0,.28-.91h0l.48-1.47c.15-.45.3-1,.47-1.49.06,0,.09-.08.1-.22a5.89,5.89,0,0,0,.29-.63,2.86,2.86,0,0,1,.29-.58,3.48,3.48,0,0,1,.23-.71c.09-.2.18-.4.27-.63a.67.67,0,0,1,.13-.38.64.64,0,0,0,.13-.38c0-.08-.11-.11-.18-.08a.8.8,0,0,1,0-.31.46.46,0,0,1,.13-.21l.2-.16a.45.45,0,0,0,.16-.23.21.21,0,0,0,.21.08c.16-.18.33-.35.5-.51a1.91,1.91,0,0,1,.59-.36s.07.06.07.09,0,.06.07.09a.34.34,0,0,1-.2.08.16.16,0,0,0-.14.07c0,.14.11.21.2.19a1.27,1.27,0,0,1,.28,0,.37.37,0,0,1,0-.17s.07-.06.16-.06,0,.06,0,.07,0,0,0,.07a.12.12,0,0,0,.09,0s0,0,0,.13a.1.1,0,0,0,.08,0s0,0,.06,0,0,0,0,0,0,.05,0,.08.17,0,.15-.14a.19.19,0,0,1,.21.08.32.32,0,0,0,0,.27.39.39,0,0,1,0,.26s.07,0,.08,0,0,0,.08,0a.43.43,0,0,0,0,.3.21.21,0,0,0,.16.09s0,.1,0,.17.05.12,0,.17a.11.11,0,0,0,.12,0s0,.11,0,.17a.14.14,0,0,0,.07.13s.06,0,0,0,0,0,.06,0a4.18,4.18,0,0,0,.09.41c0,.13.07.24.1.35v.79s0,0,0,0a.57.57,0,0,1,0,.4c-.06.16-.09.29-.12.39a.68.68,0,0,0-.11.33,1.13,1.13,0,0,1-.08.35.92.92,0,0,1-.09.23l-.09.2a1.64,1.64,0,0,0-.09.44,2,2,0,0,1-.09.47.86.86,0,0,1-.15.28,1.11,1.11,0,0,0-.14.41,2.09,2.09,0,0,1-.11.43h-.08a.94.94,0,0,0-.06.24.73.73,0,0,1-.08.25.14.14,0,0,1,0,.11s0,0,0,.08-.08.21-.13.32a1.46,1.46,0,0,0-.1.34,2.18,2.18,0,0,0-.12.22.75.75,0,0,0,0,.26c-.19.41-.37.86-.54,1.34a14.23,14.23,0,0,0-.43,1.49h-.08a.9.9,0,0,1-.06.22.62.62,0,0,0,0,.28.79.79,0,0,0-.21.72.1.1,0,0,1,0-.05s0,0-.07,0a.83.83,0,0,0-.08.28.63.63,0,0,1-.1.29,3,3,0,0,0,.65-.27,2.49,2.49,0,0,1,.62-.26.38.38,0,0,1,.23-.08.16.16,0,0,0,.16-.13.79.79,0,0,0,.51-.1,4.6,4.6,0,0,1,.51-.22,1.78,1.78,0,0,1,.59-.05,1.12,1.12,0,0,1,.43-.1.51.51,0,0,0,.39-.21,6.49,6.49,0,0,0,.72,0,3.13,3.13,0,0,1,.75,0l.4-.06a.6.6,0,0,1,.4.11,1.51,1.51,0,0,1,.85.22,1.84,1.84,0,0,0,.77.29.2.2,0,0,0,.19.11,1.66,1.66,0,0,1,.32.43.62.62,0,0,0,.36.33.91.91,0,0,0,.19.35c.08.09.16.17.23.26a2.43,2.43,0,0,1,.21.29.87.87,0,0,1,.12.42s0,.05,0,.05,0,0,.05,0a2,2,0,0,0,.07.57,3.26,3.26,0,0,1,.11.48c0,.15,0,.33-.06.52a3.79,3.79,0,0,0-.05.58l-.09.07s0,.08,0,.17-.09,0-.09.07v.11a.39.39,0,0,1-.17.17,3.88,3.88,0,0,1-.47,1.13c-.2.32-.39.65-.57,1,0,0,0,0,0,0s0,0-.05,0a.53.53,0,0,1-.17.24,2.07,2.07,0,0,1-.24.17.15.15,0,0,1,0-.22l.2-.16s0-.07,0-.08,0,0,0-.08.08,0,.07-.1-.14,0-.18,0a1.13,1.13,0,0,1-.12.21,1.94,1.94,0,0,1-.4.52l-.47.45a1.48,1.48,0,0,0-.28.28,1.48,1.48,0,0,1-.28.28l-.11,0a1.91,1.91,0,0,1-.47.39,1.3,1.3,0,0,0-.43.44.17.17,0,0,0-.25,0,1.13,1.13,0,0,1-.19.19l-.72.42a3.24,3.24,0,0,0-.64.52s-.06,0-.12,0a1.4,1.4,0,0,1-.74.36,5.09,5.09,0,0,0-.77.19s-.06,0-.07,0a.3.3,0,0,0-.08-.07c-.07.14-.15.19-.23.14a.34.34,0,0,0-.26-.05s-.06,0-.08,0a.1.1,0,0,0,0-.06.23.23,0,0,0-.22.05.42.42,0,0,1-.21.11s0-.07,0-.09a.26.26,0,0,0,0-.09.52.52,0,0,0-.3-.2.73.73,0,0,0-.41,0q0-.08,0-.09v-.1s-.06,0-.07,0,0,0-.07,0v-.14a.28.28,0,0,1-.18-.2.25.25,0,0,0-.23-.18s0,0,0-.06,0-.05,0-.07a.24.24,0,0,0-.15,0,.25.25,0,0,1-.18,0c0-.09,0-.14,0-.14a.16.16,0,0,0,.12,0c-.07-.08-.16-.08-.25,0a.17.17,0,0,1,0-.19.61.61,0,0,0,0-.18.12.12,0,0,0-.08,0s-.06,0-.09,0,0,0,0,0,0,0,0-.06-.06-.08-.08-.07A.11.11,0,0,0,125,23a.11.11,0,0,1,0-.15.23.23,0,0,0,0-.16c0-.05-.07-.06-.13,0l-.14.07a.62.62,0,0,1,0-.31.53.53,0,0,0,0-.3.16.16,0,0,0-.08-.06s0,0,0,0-.06-.06,0-.09a.13.13,0,0,0,0-.1s0,0,0,.08,0,.06-.08.05c0,.23,0,.45-.07.66a2.69,2.69,0,0,1-.16.62.23.23,0,0,0-.1-.07.1.1,0,0,1-.07-.07,5.47,5.47,0,0,0-.17.65,4.27,4.27,0,0,1-.21.72.13.13,0,0,0,0,.09.09.09,0,0,1,0,.1s-.09,0-.15,0a.45.45,0,0,0-.12.21,0,0,0,0,1-.07,0,.08.08,0,0,0-.07,0,1.08,1.08,0,0,0-.07.27.46.46,0,0,1,0,.21Zm1.4-4.24a.79.79,0,0,0,.63.06.9.9,0,0,0,.45-.33.22.22,0,0,0,.27,0,.84.84,0,0,1,.24-.14s0,0,0,0,0,.05,0,.06a4,4,0,0,1,.4-.32,1,1,0,0,0,.3-.37c.06,0,.09,0,.11,0a.13.13,0,0,0,0-.09s0-.07,0-.09a1.27,1.27,0,0,0,.44-.42l.41-.41a3,3,0,0,1,.45-.36.12.12,0,0,1,.09,0,.18.18,0,0,0,.09,0l.21-.26a2.6,2.6,0,0,1,.24-.27.31.31,0,0,1,.11-.09.31.31,0,0,0,.11-.09.41.41,0,0,0,.24-.18,1.16,1.16,0,0,1,.22-.26.65.65,0,0,1,0-.21.48.48,0,0,0,0-.25s0,0,0,0a.2.2,0,0,1,.08-.17l.15-.12a3,3,0,0,0-.77.12,3.27,3.27,0,0,0-.67.28c-.22.11-.43.23-.63.35l-.62.35a.78.78,0,0,1-.41.41c0-.05,0-.08,0-.08s0,0,0,0a14,14,0,0,0-1.29.81,2.42,2.42,0,0,0-.88,1.39s0,.05,0,.06,0,.05.06.1l-.12.29a.88.88,0,0,0,0,.39Zm1.4-.1a.38.38,0,0,0-.2,0,.28.28,0,0,0-.19.23l.38-.24Z"/></g></g></g></svg>