<svg xmlns="http://www.w3.org/2000/svg" viewBox="0 0 661.0982 170.1441"><g id="Capa_2" data-name="Capa 2"><g id="Capa_1-2" data-name="Capa 1"><path d="M40.705,106.6985c.79-1.1026,2.0217-1.46,3.0737-2.0443,4.521-2.5116,9.1092-4.9045,13.5936-7.4786a3.4809,3.4809,0,0,1,3.9752.0271q22.533,12.84,45.1457,25.5407c.7394.4175,1.4737.8471,2.2332,1.2252,1.15.5727,1.7672.136,1.854-1.0934.0543-.7707.0547-1.5461.0547-2.3194q.0038-46.442.0024-92.8841c0-2.7781.0019-2.777,2.4444-1.6385,5.033,2.3459,10.0438,4.7416,15.1148,7.0021a2.7556,2.7556,0,0,1,1.9813,2.92q-.4095,43.6365-.7126,87.2741-.1087,15.2079-.054,30.4166c.0054,1.6391-.3267,1.8484-1.751,1.0631q-43.0812-23.7531-86.1895-47.4569A7.81,7.81,0,0,1,40.705,106.6985Z" fill="#fff"/><path d="M127.6363,157.0236c-5.7872,3.2109-11.5729,6.4081-17.341,9.6366-.7714.4318-1.31.0559-1.92-.2813q-39.3033-21.736-78.6109-43.4643c-9.454-5.224-18.9224-10.422-28.701-15.8063L89.4745,57.5567c0,6.731.0138,13.0344-.0126,19.3377-.0048,1.1407-1.0383,1.4166-1.8385,1.8537q-23.47,12.8211-46.9277,25.6632c-1.0232.5614-2.7263.7866-2.6046,2.2717.1088,1.3263,1.6983,1.6675,2.7569,2.2491q42.4095,23.3014,84.83,46.5826C126.3352,155.8755,127.14,156.0707,127.6363,157.0236Z" fill="#fff"/><path d="M108.6356,25.25v96.6436c-5.6654-3.1408-11.1029-6.1636-16.5511-9.1672a2.1,2.1,0,0,1-.9707-2.175c.0575-11.1416.132-22.2832.1438-33.4249.007-6.5756-.0707-13.1514-.15-19.7267-.0265-2.1939-.5683-2.4737-2.5238-1.3771Q64.9614,69.2688,41.3471,82.529C28.2856,89.85,15.2017,97.1305,2.1586,104.4837c-1.667.94-2.0139.5958-2.0035-1.2082q.047-8.121-.1533-16.2426a2.9735,2.9735,0,0,1,1.8141-3.0762q32.19-17.6181,64.3209-35.3446C80.1979,40.878,94.2627,33.15,108.6356,25.25Z" fill="#fff"/><path d="M472.7909,111.6647c6.9479,2.4858,13.3627,4.869,19.8364,7.08,16.8652,5.76,33.7084,11.63,51.1919,15.2938,8.978,1.8812,18.15,1.9128,27.2776,1.9126a155.7232,155.7232,0,0,0,47.9961-7.0637c14.2548-4.5827,27.4378-11.1643,38.937-20.8829a1.5564,1.5564,0,0,1,1.2458-.3564c-.421.531-.8124,1.0889-1.2673,1.5892-16.4278,18.0611-36.7675,28.846-60.8524,32.652a163.0907,163.0907,0,0,1-59.0333-1.5343c-12.2068-2.5337-23.6825-7.3583-35.1724-12.0983-11.336-4.6766-22.7851-9.079-34.16-13.6621a4.4963,4.4963,0,0,0-3.2945.1718c-18.6106,5.6654-36.6028,5.0365-52.9811-6.4655-16.65-11.693-23.64-28.2174-22.49-48.3243.8446-14.7648,6.2555-27.5337,17.4524-37.4088,22.6254-19.9547,57.7085-21.5088,81.3181,1.3246,11.2027,10.8346,16.0894,24.4539,15.4409,39.842-.8939,21.2075-11,36.875-29.7054,46.9705C474.1251,110.9234,473.7238,111.15,472.7909,111.6647Zm-42.8782-.1542c1.2961-4.2081,2.7664-5.4006,7.3345-6.0711a34.0208,34.0208,0,0,1,8.5674-.0888,84.77,84.77,0,0,1,20.466,4.8351,3.0509,3.0509,0,0,0,2.8295.051,49.0117,49.0117,0,0,0,15.804-13.0556c16.5128-21.0957,15.3228-53.9692-5.6625-73.3275-21.7-20.0174-58.232-17.8922-75.0506,11.6678-5.3349,9.3766-6.4847,19.63-6.1905,30.2421C398.5962,86.8969,410.1989,103.7029,429.9127,111.5105Zm6.1143,1.4143a52.0718,52.0718,0,0,0,25.871-.3218C453.262,110.1754,444.6252,107.5842,436.027,112.9248Z" fill="#fff"/><path d="M196.5657,84.9422c0,27.4816-.0313,54.9634.057,82.4447.0073,2.3031-.6358,2.8825-2.8349,2.736-3.0073-.2-6.0391-.0962-9.0582-.0277-1.1982.0272-1.742-.3456-1.6031-1.5731a10.3683,10.3683,0,0,0,.006-1.16q0-82.3289-.0425-164.6576c-.0019-2.0243.3715-2.8613,2.596-2.68a52.6958,52.6958,0,0,0,8.1249.0044c2.17-.16,2.8245.375,2.8164,2.7013C196.5314,30.1337,196.5657,57.538,196.5657,84.9422Z" fill="#fff"/><path d="M644.45,61.6356c2.7369-1.6323,4.8018-1.2872,7.068.6574,7.8933,6.7735,10.3931,15.4857,9.3592,25.4116-1.6862,16.187-16.82,27.8266-35.08,25.5014a46.8988,46.8988,0,0,1-10.9192-2.9371c-.6584-.2531-1.673-1.1-1.5982.6551.0427,1.0021-.7667.7666-1.3292.77-3.1743.0168-6.3487.0019-9.5231.0125-.7379.0025-1.37.0409-1.3378-1.0431.0289-.9577.5966-.9076,1.229-.9.1549.002.31.0037.4646-.0008,1.6888-.0492,3.9465.5434,4.9192-.3162,1.1575-1.023.3728-3.3377.3785-5.0869.0351-10.8336.0765-21.6679-.0346-32.5005-.021-2.0321.5167-2.7957,2.564-3.0364,3.5743-.42,3.5076-.5577,3.568,3.0513.1579,9.4346-.4488,18.8816.3953,28.304.566,6.3177,2.5717,8.9884,8.8214,10.13,10.79,1.97,19.9938-.6854,26.4124-9.3681,4.9639-6.7149,5.8839-14.438,4.97-22.5188C653.9679,71.2572,650.9238,65.4706,644.45,61.6356Z" fill="#fff"/><path d="M334.9317,76.3035c7.5621.45,6.6531-.5712,7.5505,6.31,1.1851,9.0862-2.1123,16.6325-8.8842,22.7622-11.5384,10.4442-33.961,11.115-45.5316.3221-6.8791-6.4167-9.4079-17.2127-5.63-25.9615a22.11,22.11,0,0,1,22.55-13.3449c4.2656.38,8.212,1.5368,11.3869,4.5531a11.3842,11.3842,0,0,1,3.1478,12.3053c-1.251,4.141-7.8428,6.4045-11.53,4.1421a1.0341,1.0341,0,0,1-.5478-1.1349c.07-.65.5132-.6646.9961-.6532,2.7962.0658,5.0759-.8113,6.0185-3.6752a8.6346,8.6346,0,0,0-1.698-8.8817c-3.8216-4.3664-11.1038-5.5533-17.6128-2.9171-9.0127,3.65-13.1537,14.5233-8.9873,24.1984,3.7034,8.6,10.7852,13.0742,19.6547,14.8913a31.6758,31.6758,0,0,0,14.9442-.4224C335.6318,104.6824,342.0289,90.2281,334.9317,76.3035Z" fill="#fff"/><path d="M634.7977,52.5667c4.9567.6683,9.2879,1.63,13.41,4.2068-2.1988.9463-3.9882,1.5226-6.23.4589-5.413-2.5687-11.2933-3.042-17.19-3.1884-2.941-.0731-5.8877.0574-8.8269-.044-1.3708-.0473-1.9168.2353-1.83,1.7482.1421,2.4687-.0169,4.9532.0611,7.4276.0405,1.2861-.1951,2.01-1.7046,2.0719a31.6443,31.6443,0,0,0-4.1649.7064,14.4774,14.4774,0,0,1-.1883-4.1455c-.0491-8.6678-.0581-17.3359-.0942-26.0039a17.5716,17.5716,0,0,0-.1674-2.31c-.547-3.9882-1.2923-4.6868-5.2413-5.01-.6876-.0563-1.5992.3429-1.5795-1.0082.0185-1.2569.82-1.0789,1.5767-1.08,3.1751-.0058,6.3564.1172,9.5229-.0478,1.884-.0982,2.5221.5311,2.2616,2.3269a11.5117,11.5117,0,0,0-.0137,1.7251c.5146.3453.6731.0334.8782-.1648,6.5312-6.3095,14.2432-6.9987,22.3849-4.24,5.42,1.8368,8.7263,5.8218,8.9961,11.7438s-2.47,10.2191-7.6812,12.9542C637.7665,51.3292,636.4791,51.819,634.7977,52.5667Zm-20.63-8.2964c0,1.932.0254,3.8645-.0114,5.7959-.0167.8809.07,1.4594,1.2083,1.4405,4.8657-.0809,9.7544.2719,14.5877-.4176,4.2307-.6035,8.3361-1.7684,10-6.3445a13.9011,13.9011,0,0,0-.4818-11.0413c-2.1686-4.5239-6.0782-6.44-10.8766-6.5637A14.0981,14.0981,0,0,0,615.71,33.9281C613.5925,37.17,614.2914,40.7667,614.1673,44.27Z" fill="#fff"/><path d="M353.75,51.7333c-.14-5.3464.2526-11.85-.253-18.3432-.3012-3.8681-1.1327-4.6992-4.9087-4.9638-.7254-.0508-1.8949.4425-1.8572-1.0169.0417-1.6108,1.3187-.996,2.0875-.9986,11.3045-.0373,22.61-.0709,33.9136.0163,2.0152.0155,3.1141-.3678,2.6816-2.6106a.7506.7506,0,0,1,.0054-.4584c.4906-.8665-1.0461-2.7083.9412-2.6846,1.66.02.8133,1.7.8214,2.5792.0733,7.97.0616,15.9417.0126,23.9124-.0046.757.6478,2.1589-.9335,2.1-1.54-.0569-.7873-1.4339-.8109-2.18-.0979-3.0917-.0488-6.1826-.3407-9.2739-.5938-6.2853-2.5954-8.69-8.8347-9.1908-5.0029-.4014-10.0576-.1466-15.0888-.2144-.9117-.0123-1.19.3449-1.1866,1.2293q.0387,10.2151-.0059,20.43c-.0065,1.0982.4933,1.2591,1.4046,1.252,3.7163-.0289,7.434-.0586,11.1492.0139,1.2241.0239,1.3643-.519,1.35-1.5246-.0455-3.25-.0365-6.5006.0012-9.7505.0069-.5925-.4019-1.4995.7664-1.5826,1.2522-.089,1.0693.8008,1.0694,1.56q.0022,12.6531-.0077,25.306c-.0011.7112.2833,1.683-1.0085,1.6172-1.3385-.0681-.7881-1.1138-.8126-1.7462a40.9262,40.9262,0,0,0-.4249-6.9358c-.6081-2.892-1.7833-4.1357-4.6941-4.67a46.9474,46.9474,0,0,0-7.1732-.46c-1.4289-.0409-1.6323.56-1.622,1.7808.05,5.9585-.0362,11.9187.0636,17.8759.0281,1.68-.2577,2.2927-2.1255,2.0668-4.1669-.5039-4.1793-.4014-4.1793-4.5722C353.75,64.4923,353.75,58.6882,353.75,51.7333Z" fill="#fff"/><path d="M268.3984,66.9313c2.4626-.3319,2.9859.7594,2.9471,2.8887-.15,8.201-.0532,16.4061-.1721,24.6079-.094,6.4859-2.0281,12.1673-7.6927,16.0262-6.1426,4.1847-17.6655,4.1572-23.5582-.2471-4.8539-3.628-6.39-9.0184-6.8164-14.6781-.9262-12.2826-.2055-24.5977-.4282-36.8964-.0253-1.3994.3837-1.4616,1.6129-1.0635,4.5474,1.473,4.5243,1.4218,4.5723,6.1832.1036,10.29-.3163,20.5855.28,30.87a24.8175,24.8175,0,0,0,1.835,8.3248,10.37,10.37,0,0,0,7.641,6.4427,21.0932,21.0932,0,0,0,8.9807.2632c4.4679-.9278,7.6813-3.3708,9.0474-7.968a45.07,45.07,0,0,0,1.7065-12.3594c.084-6.6544.0365-13.3106.0443-19.966C268.3992,68.52,268.3984,67.6811,268.3984,66.9313Z" fill="#fff"/><path d="M326.4653,26.58a31.9888,31.9888,0,0,1,.0417-3.9744c.1087-.8189-.8349-2.29.8478-2.3626,1.7871-.0768.9512,1.4818.9587,2.26.0706,7.3515.042,14.7039.042,22.056,0,1.78.01,3.56-.005,5.34-.0063.7308.2493,1.6427-1.0424,1.5737-1.1658-.0623-.8141-.9252-.8307-1.5379-.1193-4.404.1975-8.8135-.4188-13.2117-.8437-6.0209-4.0412-9.0579-10.1163-9.3958-6.2276-.3465-11.377,2.9831-12.7557,8.1955-1.0148,3.8366.337,6.9927,2.7862,9.8069a42.0534,42.0534,0,0,0,12.3909,9.2269,104.6132,104.6132,0,0,1,15.3628,9.4723,21.873,21.873,0,0,1,6.5641,7.3929c.26.524.8719,1.1.528,1.6892-.3814.6531-1.1127.1135-1.6867.1424a8.9321,8.9321,0,0,1-7.1237-2.9356c-4.6708-4.585-10.7025-7.2714-16.2287-10.6546A82.0142,82.0142,0,0,1,304.3133,51.83a15.2856,15.2856,0,0,1-4.7186-16.97c1.9159-5.4959,7.9115-9.7264,14.06-10.1679A29.3244,29.3244,0,0,1,326.4653,26.58Z" fill="#fff"/><path d="M591.4227,84.9024c-.0889,3.747.0734,8.1525-.3867,12.557-.9515,9.1075-7.4356,15.4421-16.612,15.964a27.0557,27.0557,0,0,1-5.789-.1118c-9.442-1.5208-14.1118-6.6026-15.3365-16.3969-.8-6.4012-.34-12.8287-.49-19.2434-.0232-.9959.3308-1.2791,1.3191-1.3769,4.8132-.476,4.7817-.5117,4.8169,4.289.0423,5.794-.3166,11.6077.76,17.357,1.6773,8.9581,6.0192,12.42,15.1148,12.0515,7.5247-.3046,11.5509-4.0885,12.8529-12.0011a103.0068,103.0068,0,0,0,.867-17.1245c-.0071-2.3212.1-4.6483-.0362-6.9616-.0917-1.5644.6877-1.7554,1.93-1.8344,1.6672-.106.9448,1.1064.9571,1.7282C591.4582,77.279,591.4227,80.7616,591.4227,84.9024Z" fill="#fff"/><path d="M129.9553,31.9026c-6.3687-3.0009-12.27-5.7953-18.1866-8.5563a2.1158,2.1158,0,0,1-1.2444-2.2354c.03-5.5583.0478-11.1169.0207-16.6751-.006-1.2352.1475-1.6838,1.5144-1.0284,5.3412,2.5614,10.7228,5.04,16.1114,7.5007a2.5929,2.5929,0,0,1,1.8285,2.7465C129.8915,19.5922,129.9553,25.5329,129.9553,31.9026Z" fill="#fff"/><path d="M539.3774,97.1647c0,6.1894.018,12.3788-.0254,18.5678-.0049.6893.5667,1.8751-.9491,1.8522-1.505-.0228-.89-1.2-.91-1.887-.1177-3.9934-.09-3.9942-3.9977-3.9942q-14.7461,0-29.4921-.0009c-.5415,0-1.0834-.0061-1.6246-.0227-.6528-.02-.6659-.48-.6709-.9681-.0051-.5025.0487-.9308.6959-.9362q.58-.0048,1.1607-.0136c5.139-.0726,5.1389-.0727,5.1387-5.335,0-7.6593.04-15.319-.0354-22.9775-.0145-1.4782.3733-1.9248,1.8823-2.0162,4.573-.277,4.5684-.3571,4.5682,4.1154,0,8.0461.0621,16.0931-.0512,24.1377-.0253,1.7967.499,2.1855,2.1856,2.1137,4.0151-.171,8.04.1077,12.05-.4843,4.26-.6292,6.28-2.36,7.3318-6.5465a40.6533,40.6533,0,0,0,.8359-10.14c-.0146-4.41-.0563-8.821.0419-13.2287.0193-.8647-.8616-2.512.8452-2.536,1.9738-.0276.9458,1.7767.9627,2.6616C539.4317,85.404,539.3774,91.2849,539.3774,97.1647Z" fill="#fff"/><path d="M508.6686,54.0717c0-6.19.0153-12.38-.0137-18.5706-.0054-1.1533-.1887-2.3058-.29-3.4587-.2161-2.4636-1.7041-3.4882-4.0334-3.5636-.5415-.0175-1.084-.0769-1.6238-.0562-.8533.0327-1.0186-.4288-1.01-1.1641.0091-.7711.4627-.8712,1.0584-.8711q9.6387.0015,19.2774-.0087c.7762-.0018,1.1033.2629,1.099,1.078-.0049.8967-.5034.9923-1.1964.9633-.5409-.0227-1.0837-.0036-1.6256-.0035-5.1928.0011-5.1922.001-5.192,5.301.0008,13.3092-.0271,26.6185.0363,39.9273.0081,1.6881-.2834,2.3992-2.1955,2.4446-4.2626.1014-4.26.226-4.26-4.1432V54.0717Z" fill="#fff"/><path d="M108.7652,3.0223c0,6.6188-.0051,12.71.0058,18.8008a1.8362,1.8362,0,0,1-1.0921,1.823Q100.3526,27.6,93.0853,31.6623c-1.2049.67-1.8493.8711-1.8164-.9892.0957-5.4107.0315-10.8243.0246-16.2368-.0011-.8508-.0566-1.6347.9025-2.1633C97.59,9.3,102.9547,6.2741,108.7652,3.0223Z" fill="#fff"/><path d="M552.8244,53.0845c-.0027-5.3335.0142-10.6671-.0143-16a29.0708,29.0708,0,0,0-.26-4.156c-.5-3.33-1.4369-4.1382-4.8218-4.4036-.2311-.0181-.4635-.0236-.6954-.0284-.688-.0142-1.3969.1162-1.3616-1.0056.0316-1.0029.5727-1.1008,1.3531-1.0994q8.9325.0161,17.8651.0025c.7621-.0007,1.33.0756,1.3481,1.0966.02,1.1262-.6909.9872-1.3749.99a34.9876,34.9876,0,0,1-3.9411-.0266c-1.6709-.1832-2.0282.4559-2.02,2.053.0665,13.0629.0477,26.1264.016,39.19-.0023.9456.5576,2.4325-.4276,2.75a16.53,16.53,0,0,1-5.2671.5521c-.7023-.0116-.3771-1.0379-.3794-1.594C552.8175,65.2976,552.8271,59.191,552.8244,53.0845Z" fill="#fff"/><path d="M360.0075,91.4072c.1182,3.8122-.216,8.302.3785,12.7788.5333,4.0159,1.8428,5.3376,5.97,5.5756,1.3112.0756,2.63.04,3.945.02.6911-.0107,1.19.0444,1.1809.9587-.0092.9188-.5583.9605-1.2153.958-.1548-.0006-.31.001-.4646.001-7.1242,0-14.2484.01-21.3725-.0159-.6662-.0024-1.6492.4173-1.7042-.9066s.8949-.961,1.5957-1.0074c1.7651-.1169,4.2643.7643,5.1072-.3576.9042-1.2032.3137-3.5537.3168-5.4036.0136-8.0492.0446-16.0988-.0269-24.1474-.0143-1.6012.2929-2.12,2.0409-1.899,4.2353.5361,4.248.4363,4.248,4.6486Z" fill="#fff"/><path d="M232.6026,43.02c0-3.0169.0944-6.0374-.023-9.05-.16-4.0916-1.2783-5.1541-5.3055-5.4705-.74-.0581-1.7953.3713-1.7068-1.1225.076-1.2844.9633-.9746,1.6629-.9768q8.592-.0269,17.1843-.0055c.8079.0012,1.7433-.2593,1.7068,1.1655-.0361,1.4055-1.0229.7651-1.6486.9211a1.3615,1.3615,0,0,1-.2316.0032c-1.7616.1172-4.1772-.7706-5.1073.3778-.8825,1.09-.2742,3.4056-.2773,5.1824-.0113,6.6535-.0428,13.3073.0255,19.96.015,1.4556-.198,1.8834-1.7482,1.3678-4.4124-1.4679-4.4326-1.4072-4.4326-6.0863V43.02Z" fill="#fff"/><path d="M461.1963,156.2183c-2.7037-.0008-5.4107.0837-8.11-.0248-2.6367-.106-3.7225-1.0527-3.8125-3.6775-.1533-4.4736-.1554-8.96-.0046-13.4334.085-2.5231,1.2473-3.59,3.8866-3.647q8.11-.1752,16.2263-.0083c2.7549.0562,3.908,1.3234,3.954,4.0791.0708,4.2468.0778,8.4969-.006,12.7433-.055,2.79-1.1677,3.8566-4.0234,3.95C466.606,156.2887,463.9,156.2191,461.1963,156.2183Zm.1232-2.7882c2.3965,0,4.7953-.0631,7.1885.026,1.2423.0462,1.5686-.38,1.5479-1.5825-.069-4.0166-.0777-8.0362.0028-12.0524.0271-1.3513-.4407-1.6953-1.7282-1.677-4.6373.0661-9.2776.0885-13.9138-.01-1.4989-.0318-1.8145.511-1.79,1.8677.0719,3.9392.0825,7.8818-.0051,11.82-.0308,1.3828.4879,1.6793,1.741,1.6327C456.6789,153.3689,459,153.43,461.32,153.43Z" fill="#fff"/><path d="M324.7141,155.8558c-2.7816,0-5.5658.0739-8.344-.0225-2.3916-.0829-3.3281-1.0649-3.3585-3.4776q-.0844-6.7182.0009-13.438c.0314-2.409,1.138-3.5515,3.5786-3.5821q8.3447-.1044,16.6912.006c2.3155.0329,3.4192,1.1524,3.4587,3.4505q.1173,6.8316-.0006,13.6664c-.0432,2.3925-1.0134,3.3121-3.45,3.3853-2.8564.086-5.7174.02-8.5765.02Zm.0869-2.8212c2.3931,0,4.7869-.0358,7.1788.0171,1.0016.0221,1.5389-.1046,1.5158-1.3405q-.1148-6.1317-.001-12.2666c.0213-1.1984-.4565-1.3706-1.4868-1.3611-4.7857.0439-9.5724.0555-14.3577-.0065-1.1543-.015-1.4087.3839-1.3939,1.4547.0552,4.0113.0755,8.0249-.0087,12.0352-.0272,1.2957.4684,1.5265,1.6066,1.49C320.1676,152.9828,322.4852,153.0348,324.801,153.0346Z" fill="#fff"/><path d="M265.2152,150.99c0-4.9105.0389-9.4592-.0253-14.0064-.0177-1.2551.2718-1.7346,1.64-1.7485,1.4094-.0144,1.6112.5363,1.6,1.7526-.0535,5.72-.0131,11.4408-.0405,17.1612-.0027.5625.3757,1.3915-.3717,1.6492a2.2248,2.2248,0,0,1-2.3561-.499c-2.0992-1.938-4.2737-3.7944-6.4-5.7038-3.5007-3.1441-6.9865-6.3047-10.7486-9.7021v4.4113c0,3.324-.0328,6.6486.0189,9.9719.0169,1.08-.0763,1.7227-1.4468,1.6693-1.2021-.0468-1.7954-.202-1.7751-1.6376.0812-5.7193.02-11.44.0523-17.1608.0034-.62-.4143-1.5374.5165-1.7968a2.41,2.41,0,0,1,2.38.5175c1.765,1.6171,3.5669,3.194,5.3544,4.7865C257.3979,144.0261,261.1827,147.3975,265.2152,150.99Z" fill="#fff"/><path d="M487.23,140.16c0,5.0257-.0481,9.6639.03,14.3.023,1.3622-.2542,1.8961-1.76,1.8928-1.4759-.0033-1.5674-.6485-1.5584-1.8108.0436-5.65-.0037-11.3.0482-16.9495.0067-.731-.5639-1.8217.608-2.1626a2.568,2.568,0,0,1,2.5179.7771c4.4071,4.0044,8.8771,7.94,13.2913,11.9364,1.13,1.0232,2.1359,2.1838,3.38,3.4689,0-4.9489.0122-9.537-.0083-14.125-.0054-1.212-.1579-2.22,1.7174-2.1747,1.7523.0421,1.562.9945,1.56,2.0924-.0093,5.5726.0121,11.1453-.0247,16.7176-.0047.7087.451,1.6971-.4545,2.0865a2.3174,2.3174,0,0,1-2.497-.7778q-6.2559-5.7106-12.5386-11.3916C490.1889,142.8129,488.8267,141.5963,487.23,140.16Z" fill="#fff"/><path d="M282.4354,139.9212c0,4.8673-.03,9.4771.02,14.0859.0136,1.2374-.0287,2.0037-1.6687,1.9557-1.4933-.0436-1.5579-.7261-1.55-1.8685.0369-5.647.0034-11.2944.0358-16.9415.0035-.62-.4173-1.5384.5144-1.7979a2.3724,2.3724,0,0,1,2.3751.5153c1.526,1.4213,3.1075,2.783,4.665,4.1706,4.0722,3.6277,8.1438,7.2563,12.3136,10.9718,0-4.7475.0282-9.3558-.02-13.9634-.0122-1.1692.1076-1.83,1.5716-1.8136,1.3359.0152,1.67.4213,1.6555,1.71-.0646,5.7239-.0124,11.449-.0513,17.1733-.004.5913.483,1.5-.5631,1.7378a2.4452,2.4452,0,0,1-2.3177-.6926c-3.3673-3.0746-6.79-6.0889-10.187-9.1308C287.0133,144.05,284.8071,142.0557,282.4354,139.9212Z" fill="#fff"/><path d="M415.2136,156.2169c-2.32-.0022-4.6451.0892-6.9595-.0274-2.4232-.122-3.5777-1.214-3.6375-3.6371-.1106-4.4821-.0875-8.97-.0008-13.4532.0412-2.1311,1.2206-3.5717,3.437-3.611,4.8688-.0863,9.7477-.1747,14.6081.0495,2.6463.122,4.5769,4.2484,3.1824,6.45-.5609.8856-1.7835.8173-2.7481.7789-.9419-.0374-.59-.9207-.62-1.466-.1682-3.1213-.1557-3.1221-3.28-3.1222-3.0947,0-6.1913.0608-9.2835-.0276-1.3736-.0393-1.9141.3135-1.8811,1.7875.09,4.0191.065,8.042.01,12.0624-.0151,1.0982.2888,1.4688,1.43,1.4483,3.79-.068,7.5832-.0839,11.3722.0056,1.3517.032,1.8021-.4169,1.6323-1.7011a5.0336,5.0336,0,0,1,.0094-1.6183c.1353-.6767-.5948-2.0634.9493-1.7461.9608.1974,2.7341-.3215,2.5331,1.7621-.0739.7663.0275,1.5482-.024,2.3182-.1712,2.5585-1.1879,3.6242-3.7689,3.73C419.8571,156.2938,417.5339,156.2192,415.2136,156.2169Z" fill="#fff"/><path d="M397.9476,156.0511c-2.4626.6883-4.2336.2959-4.9828-2.2429-.6743-2.2854-2.18-2.9473-4.5139-2.7493a52.6536,52.6536,0,0,1-8.1178.0074c-2.144-.1507-3.4815.4409-4.1442,2.578-.6761,2.1807-2.0457,3.3822-4.6741,2.3748q2.2379-4.1205,4.49-8.2677c1.9516-3.5894,3.94-7.1594,5.8371-10.7773a2.5886,2.5886,0,0,1,2.68-1.65,2.8824,2.8824,0,0,1,2.9182,1.6565C390.8679,143.3528,394.4125,149.6621,397.9476,156.0511ZM384.52,137.8078c-1.9189,3.69-3.6506,7.02-5.433,10.4479h10.96C388.1772,144.7217,386.4312,141.421,384.52,137.8078Z" fill="#fff"/><path d="M588.5458,50.0481c-.1772-4.8255.3407-10.712-.2771-16.5738-.4244-4.0274-1.1539-4.6646-5.2279-4.94-.617-.0417-1.2375-.0541-1.856-.0478-.6673.0068-1.2081-.0192-1.2056-.9463.0026-.9527.464-1.1723,1.3-1.1549,1.6244.0339,3.25.01,4.875.01,3.56,0,7.1194-.007,10.6791.0062.7279.0027,1.57-.2363,1.61,1.0355.0407,1.3077-.8138,1.0055-1.5324,1.046-1.7582.099-4.0922-.7519-5.1268.3371-1.1268,1.186-.3379,3.5241-.3436,5.3555-.0336,10.828-.0063,21.6562-.0392,32.4843-.0023.7428.5195,1.8467-.7316,2.1279-1.1319.2543-2.2128.526-2.1667-1.4511C588.6284,61.9254,588.5458,56.51,588.5458,50.0481Z" fill="#fff"/><path d="M268.2736,48.0663c0-4.7152.19-9.44-.0552-14.1427-.2308-4.424-1.218-5.0882-5.5221-5.4673-.8879-.0782-2.6858,1.0506-2.6906-.9367-.0052-2.138,1.8863-1.036,2.8454-1.0645,4.4828-.1332,8.9719-.08,13.4583-.0393.7937.0072,2.0076-.5161,1.9962,1.1057-.0108,1.5326-1.1645.9195-1.8448.9352-5.1673.12-5.1676.0991-5.1674,5.3635,0,9.3553.0148,18.7107-.031,28.0658-.0033.6539.6533,1.8962-.825,1.8722-1.2-.02-2.1272-.3233-2.08-2.008.1291-4.5581.0443-9.1221.0443-13.6838Z" fill="#fff"/><path d="M356.4208,152.7845c2.6525-5.21,5.2751-10.078,7.6088-15.0809.9624-2.0632,2.1343-2.8459,4.3606-2.1217a22.4827,22.4827,0,0,1-2.2408,4.6862q-3.8079,7.408-7.683,14.7814a2.35,2.35,0,0,1-4.1757.1983c-3.5819-6.4661-7.1037-12.9656-10.7164-19.5781,2.3-.67,3.7494-.4157,4.8712,1.9207C350.8763,142.6527,353.6474,147.5518,356.4208,152.7845Z" fill="#fff"/><path d="M231.1055,145.7088c0-3.0187.0506-6.0386-.0253-9.0553-.0294-1.167.404-1.45,1.4765-1.397.982.0484,1.7748-.06,1.7584,1.3892q-.1012,8.9388.0008,17.8791c.0167,1.4408-.7561,1.3719-1.7524,1.4108-1.06.0413-1.5178-.2206-1.485-1.4038C231.16,151.5928,231.1053,148.65,231.1055,145.7088Z" fill="#fff"/><path d="M438.5975,146.0017c0,2.9331-.0906,5.87.0359,8.7979.0692,1.601-.8216,1.4252-1.8644,1.4809-1.1595.0619-1.6111-.225-1.5965-1.5036q.101-8.9141-.0015-17.83c-.0169-1.3825.4944-1.6271,1.7327-1.6358,1.2721-.009,1.7678.2939,1.7239,1.66C438.5309,139.9788,438.5976,142.9913,438.5975,146.0017Z" fill="#fff"/><path d="M465.87,126.5208c-2.3036,2.2063-3.0625,5.9616-7.1,6.4278,1.2331-2.0645,2.37-4.1957,3.7368-6.1674C463.2781,125.669,464.6243,126.3968,465.87,126.5208Z" fill="#fff"/></g></g></svg>